<svg width="58" height="58" viewBox="0 0 58 58" fill="none" xmlns="http://www.w3.org/2000/svg">
<g filter="url(#filter0_d_2_4319)">
<rect x="7" y="7" width="44" height="44" rx="3" fill="white"/>
</g>
<path d="M14 23.6231V40.2893L14.1314 40.2644C14.0526 40.705 14 41.1374 14 41.5448C14 45.1168 22.6233 45.0489 30.0368 44.9817C31.284 44.9704 32.4967 44.9591 33.6283 44.9651C38.9334 44.9923 43.0843 39.0579 42.9987 34.7932V16.87L14 23.6231Z" fill="#2F2C26"/>
<path d="M26.9807 44.9991C24.2355 44.9991 21.5105 44.9327 19.2683 44.6293V26.7091C21.5022 27.0117 24.2197 27.0766 26.9552 27.0766C27.2165 27.0766 27.4786 27.0759 27.7399 27.0751V44.9976C27.4868 44.9983 27.2338 44.9991 26.9807 44.9991Z" fill="#585349"/>
<path d="M28.7152 44.9923V27.0691C28.99 27.0668 29.2641 27.0645 29.5359 27.0623V44.9855C29.2641 44.9885 28.9893 44.9893 28.7152 44.9923Z" fill="#3E3A33"/>
<path d="M42.9987 16.87C43.0843 21.1346 38.9334 27.0698 33.6283 27.0411C32.4967 27.0351 31.2833 27.0464 30.0368 27.0577C22.6225 27.1256 14 27.1936 14 23.6231C14 19.452 18.1629 13.1388 26.0248 13.1388C33.8866 13.1388 42.9138 12.7005 42.9987 16.87Z" fill="#F3E3CD"/>
<path d="M24.5118 16.4241C22.0969 17.1107 20.7438 18.4168 21.3745 20.7732C22.3117 24.278 30.3147 23.6246 33.0983 23.0821C34.8711 22.7365 36.9706 21.8507 36.9931 19.28C37.0239 15.6145 27.8472 15.4756 24.5118 16.4241Z" fill="white"/>
<path d="M24.5118 16.4241C22.0969 17.1107 20.7438 18.4168 21.3745 20.7732C22.3117 24.278 30.3147 23.6246 33.0983 23.0821C34.8711 22.7365 36.9706 21.8507 36.9931 19.28C37.0239 15.6145 27.8472 15.4756 24.5118 16.4241Z" fill="white"/>
<path d="M22.009 21.8703C23.8089 23.7348 28.5545 23.6669 31.522 23.3183C31.5513 22.8656 31.483 22.3381 31.293 21.7194C31.061 20.9566 30.6915 20.4186 30.2913 19.9953C29.394 19.0461 24.6221 19.8738 22.009 21.8703Z" fill="#64AB4E"/>
<path d="M22.353 22.1615C24.2227 23.6178 28.1701 23.6518 30.9664 23.3786C31.0288 22.9591 30.9837 22.4566 30.79 21.8492C30.576 21.1814 30.3034 20.7536 30.0376 20.3092C29.4421 19.3064 24.6492 20.4042 22.353 22.1615Z" fill="#B9D053"/>
<path d="M29.4405 15.9314C27.5137 15.899 25.6643 16.0959 24.5117 16.4241C23.7758 16.6339 23.1533 16.9101 22.6404 17.2466C23.724 17.4163 24.8263 17.6963 25.8618 17.9128C26.4933 18.0456 27.5708 18.4236 28.1385 18.0373C28.8098 17.5801 29.1649 16.6716 29.4405 15.9314Z" fill="#EE8947"/>
<path d="M24.5118 16.4241C23.9735 16.5773 23.4959 16.7666 23.0724 16.987C23.9622 17.1447 24.8565 17.3537 25.7028 17.525C26.3072 17.6487 27.3359 17.9958 27.8796 17.6389C28.4503 17.2654 28.7799 16.5607 29.0329 15.9276C27.2571 15.9276 25.5834 16.1192 24.5118 16.4241Z" fill="#FFBB98"/>
<path d="M32.0597 16.1291C31.3929 17.0209 30.5496 18.1112 31.1699 18.5209C32.2782 19.2551 33.6456 19.4332 34.9161 19.3728C35.6129 19.3411 36.3007 19.2574 36.9826 19.1465C36.8887 17.4125 34.6796 16.4973 32.0597 16.1291Z" fill="#EE8947"/>
<path d="M36.9593 18.9096C36.6913 17.3665 34.6608 16.5237 32.243 16.157C31.625 16.9787 30.9199 17.9362 31.4831 18.3067C32.5411 19.0031 33.8446 19.1721 35.0566 19.1148C35.6971 19.0846 36.3316 19.0084 36.9593 18.9096Z" fill="#FFBB98"/>
<path d="M19.2442 23.9408C19.031 23.8661 18.8575 23.7514 18.7479 23.6125C18.8485 23.559 18.9484 23.4963 19.0452 23.4239C19.3583 23.19 19.5866 22.901 19.7068 22.6173C19.7999 22.6135 19.8877 22.5992 19.9673 22.5751C20.1573 22.8014 20.5207 22.9606 20.9442 22.9803C21.0013 23.0693 21.0328 23.1666 21.0328 23.2685C21.0328 23.4088 20.9735 23.5401 20.8706 23.6533C20.7362 23.5605 20.5628 23.5145 20.3691 23.5145C20.0312 23.5145 19.6309 23.6533 19.2682 23.9227C19.26 23.9287 19.2525 23.9347 19.2442 23.9408Z" fill="#F6EBD9"/>
<path d="M21.0329 22.9818C21.0028 22.9818 20.9736 22.981 20.9443 22.9803C20.7986 22.7516 20.4847 22.5781 20.1003 22.5207C20.2107 22.4634 20.2978 22.3812 20.3503 22.2748C20.4457 22.0816 20.4097 21.8447 20.2745 21.6183C20.4817 21.5112 20.7453 21.4478 21.0329 21.4478C21.3175 21.4478 21.5795 21.5104 21.786 21.6161C21.9099 21.7805 22.0548 21.9322 22.217 22.0718C22.2313 22.1186 22.2381 22.1661 22.2381 22.2152C22.2381 22.3683 22.1675 22.5109 22.0458 22.6309C21.9707 22.6196 21.8979 22.6135 21.8273 22.6135C21.5067 22.6135 21.2424 22.7313 21.1305 22.9561C21.1267 22.9637 21.123 22.972 21.1192 22.9803C21.0907 22.981 21.0622 22.9818 21.0329 22.9818Z" fill="#F6EBD9"/>
<path d="M22.217 22.0718C22.0548 21.9322 21.9099 21.7805 21.786 21.616C21.8994 21.6734 21.9955 21.7443 22.0698 21.8243C22.0496 21.8394 22.0293 21.8552 22.009 21.8703C22.0736 21.9375 22.1427 22.0024 22.2155 22.065C22.2163 22.0672 22.2163 22.0695 22.217 22.0718Z" fill="white"/>
<path d="M22.216 22.065C22.143 22.0022 22.0737 21.9372 22.009 21.8699C22.0293 21.8547 22.0496 21.8388 22.07 21.8237C22.1385 21.8971 22.1889 21.978 22.216 22.065Z" fill="#91C279"/>
<path d="M20.9442 22.9803C20.5207 22.9607 20.1573 22.8014 19.9673 22.5751C20.0146 22.5607 20.0589 22.5426 20.1002 22.5208C20.4847 22.5781 20.7985 22.7516 20.9442 22.9803Z" fill="#F9F0E2"/>
<path d="M21.2205 26.0806C20.7227 26.0806 20.2939 25.889 20.1107 25.6143C20.2031 25.5638 20.2954 25.5049 20.3848 25.4378C20.7272 25.1827 20.9682 24.8605 21.0764 24.5519C21.1237 24.5482 21.1717 24.5467 21.2205 24.5467C21.8866 24.5467 22.4257 24.8892 22.4257 25.3133C22.4257 25.3178 22.4257 25.3223 22.4257 25.3268C22.3041 25.48 22.2125 25.6407 22.1554 25.7984C21.9347 25.9705 21.5975 26.0806 21.2205 26.0806Z" fill="#F6EBD9"/>
<path d="M27.7481 25.6332C27.5289 25.4393 27.1715 25.3133 26.769 25.3133C26.7299 25.3133 26.6909 25.3148 26.6526 25.3171C26.6548 25.2959 26.6563 25.2748 26.6563 25.2537C26.8005 25.2921 26.959 25.3133 27.1249 25.3133C27.7534 25.3133 28.2715 25.0084 28.3263 24.6153C28.3684 24.7285 28.436 24.8424 28.5268 24.9503C28.5208 25.0318 28.4953 25.1103 28.4525 25.1835C28.1491 25.1918 27.9013 25.3088 27.7939 25.5238C27.7774 25.5585 27.7647 25.594 27.7556 25.6309C27.7526 25.6317 27.7504 25.6324 27.7481 25.6332Z" fill="#F6EBD9"/>
<path d="M37.4593 18.5617C37.2123 18.5504 36.9855 18.4923 36.8015 18.401C36.6904 18.1678 36.5342 17.9535 36.3383 17.7574C36.3473 17.6434 36.3953 17.5363 36.4734 17.4412C36.7407 17.4155 36.9547 17.3009 37.0524 17.1039C37.0539 17.1009 37.0554 17.0971 37.0569 17.0941C37.171 17.0624 37.2941 17.0413 37.4233 17.033C37.4571 17.0375 37.4924 17.0405 37.5269 17.0428C37.2446 17.1831 37.0621 17.402 37.0621 17.6487C37.0621 18.069 37.5952 18.4108 38.2545 18.4153C38.1854 18.4478 38.1111 18.4749 38.033 18.4975C37.9737 18.49 37.9166 18.487 37.8603 18.487C37.7116 18.487 37.5742 18.5119 37.4593 18.5617Z" fill="#F6EBD9"/>
<path d="M36.8015 18.401C36.7993 18.4002 36.7978 18.3995 36.7963 18.3987C36.6859 18.1678 36.5312 17.9558 36.3383 17.7611C36.3383 17.7604 36.3383 17.7589 36.3383 17.7574C36.5342 17.9535 36.6904 18.1678 36.8015 18.401Z" fill="white"/>
<path d="M36.7963 18.3987C36.5163 18.2584 36.3368 18.0403 36.3368 17.7958C36.3368 17.7845 36.3375 17.7732 36.3383 17.7611C36.5313 17.9558 36.686 18.1678 36.7963 18.3987Z" fill="#FFCDB1"/>
<path d="M30.9536 14.7226C30.9506 14.7226 30.9469 14.7226 30.9439 14.7226C30.8297 14.6223 30.6961 14.5317 30.5452 14.4555C30.3101 14.3378 30.0684 14.2752 29.8499 14.2646C29.7845 14.1703 29.7485 14.0654 29.7485 13.956C29.7485 13.5312 30.2884 13.1887 30.9536 13.1887C31.3434 13.1887 31.6903 13.3064 31.911 13.489C31.854 13.4822 31.7984 13.4791 31.7443 13.4791C31.423 13.4791 31.1586 13.5961 31.0475 13.8217C30.9199 14.0775 31.0227 14.4087 31.2825 14.6939C31.1782 14.7128 31.0678 14.7226 30.9536 14.7226Z" fill="#F6EBD9"/>
<path d="M32.734 16.1495C32.068 16.1495 31.5288 15.8061 31.5288 15.3828C31.5288 15.2485 31.5829 15.1225 31.6775 15.0131C31.718 15.0373 31.7608 15.0607 31.8044 15.0825C32.0627 15.2123 32.3285 15.2749 32.5635 15.2749C32.8849 15.2749 33.15 15.1572 33.2619 14.9316C33.2957 14.863 33.3137 14.7883 33.3159 14.7106C33.3392 14.7189 33.3617 14.7272 33.3835 14.7362C33.2806 15.0229 33.2919 15.2998 33.4406 15.5021C33.5277 15.619 33.6516 15.699 33.7995 15.7428C33.5968 15.985 33.1958 16.1495 32.734 16.1495Z" fill="#F6EBD9"/>
<path d="M27.444 13.1351C27.4786 13.1245 27.5139 13.1147 27.5499 13.1064C27.5266 13.1162 27.5041 13.126 27.4808 13.1351C27.4681 13.1351 27.4568 13.1351 27.444 13.1351ZM27.5657 13.1351C27.613 13.1155 27.6603 13.0958 27.7083 13.0762C27.794 13.0641 27.8833 13.0574 27.9749 13.0574C28.1581 13.0574 28.3331 13.0838 28.4893 13.1305C28.1814 13.132 27.8728 13.1336 27.5657 13.1351Z" fill="white"/>
<path d="M27.4809 13.1351C27.5042 13.126 27.5268 13.1162 27.5501 13.1063C27.6013 13.0942 27.6548 13.0837 27.709 13.0761C27.6608 13.0958 27.6134 13.1154 27.5659 13.1351C27.5381 13.1351 27.5087 13.1351 27.4809 13.1351Z" fill="#F95A5C"/>
<path d="M28.9451 14.2797C28.7656 14.211 28.5554 14.1726 28.3308 14.1726C28.2775 14.1726 28.2242 14.1748 28.1724 14.1786C28.0132 14.0782 27.8097 14.0058 27.5822 13.9741C27.3524 13.8738 27.1204 13.8247 26.9131 13.8247C26.8636 13.8247 26.8155 13.827 26.769 13.833C26.769 13.83 26.769 13.827 26.769 13.824C26.769 13.5214 27.0438 13.2603 27.444 13.1351C27.4568 13.1351 27.4681 13.1351 27.4808 13.1351C27.5086 13.1351 27.5379 13.1351 27.5657 13.1351C27.8728 13.1336 28.1814 13.1321 28.4893 13.1305C28.8978 13.2535 29.1808 13.5176 29.1808 13.824C29.1808 13.9945 29.093 14.1522 28.9451 14.2797Z" fill="#F6EBD9"/>
<path d="M27.0694 15.4726C26.8652 15.4454 26.6797 15.3843 26.528 15.3006C26.5415 15.2545 26.5483 15.2078 26.5483 15.1602C26.5483 15.1519 26.5475 15.1444 26.5475 15.1361C26.6669 15.2462 26.8103 15.3458 26.9725 15.4273C27.0048 15.4439 27.0371 15.459 27.0694 15.4726Z" fill="#F6EBD9"/>
<path d="M27.9764 14.2058C27.8856 14.1364 27.7835 14.0722 27.6731 14.0164C27.6431 14.0013 27.6123 13.9869 27.5822 13.9741C27.8097 14.0058 28.0132 14.0782 28.1724 14.1786C28.1056 14.1846 28.0395 14.1937 27.9764 14.2058Z" fill="#F9F0E2"/>
<path d="M25.3424 15.9276C25.2222 15.9276 25.1058 15.9163 24.9962 15.8952C25.3461 15.5345 25.5218 15.1052 25.4618 14.7656C25.5616 14.7852 25.6593 14.7951 25.7524 14.7951C25.8853 14.7951 26.0092 14.7754 26.1166 14.7354C26.1226 14.9611 26.2802 15.1625 26.528 15.3006C26.4244 15.6575 25.9333 15.9276 25.3424 15.9276Z" fill="#F6EBD9"/>
<path d="M26.5279 15.3006C26.2801 15.1625 26.1224 14.961 26.1164 14.7354C26.1532 14.7219 26.1885 14.7052 26.2208 14.6871C26.2846 14.8418 26.3965 14.9973 26.5474 15.1361C26.5474 15.1444 26.5482 15.1519 26.5482 15.1602C26.5482 15.2078 26.5414 15.2546 26.5279 15.3006Z" fill="#F9F0E2"/>
<path d="M19.444 16.615C19.0468 16.489 18.7734 16.2287 18.7734 15.9276C18.7734 15.5036 19.3141 15.1602 19.9794 15.1602C20.2715 15.1602 20.5403 15.2266 20.749 15.3368C20.5515 15.4055 20.3503 15.5111 20.1588 15.6529C19.7886 15.9291 19.5371 16.283 19.444 16.615Z" fill="#F6EBD9"/>
<path d="M18.6645 19.7765C17.9992 19.7765 17.4594 19.4331 17.4594 19.0091C17.4594 18.7171 17.7169 18.4628 18.0946 18.3338C18.1629 18.3806 18.2365 18.4236 18.3146 18.4628C18.5722 18.5918 18.8373 18.6545 19.073 18.6545C19.275 18.6545 19.4552 18.6077 19.5889 18.5171C19.7646 18.6499 19.8705 18.822 19.8705 19.0091C19.8705 19.0649 19.8607 19.1193 19.8434 19.1713C19.6625 19.3072 19.5101 19.4611 19.3907 19.6218C19.1887 19.7191 18.9371 19.7765 18.6645 19.7765Z" fill="#F6EBD9"/>
<path d="M17.2071 22.8958C17.1501 22.8769 17.0952 22.855 17.0442 22.8309C17.1621 22.7396 17.2664 22.6407 17.3573 22.5374C17.2882 22.6573 17.2372 22.778 17.2071 22.8958ZM17.5773 22.2325C17.735 21.9601 17.7966 21.6802 17.7418 21.4478C17.7485 21.4478 17.7553 21.4478 17.762 21.4478C17.8739 21.4478 17.9828 21.4576 18.0857 21.4757C18.0954 21.5655 18.1247 21.6591 18.1713 21.7511C18.0894 21.7979 18.0083 21.85 17.9295 21.9088C17.7958 22.0084 17.6779 22.1178 17.5773 22.2325Z" fill="#F6EBD9"/>
<path d="M19.8434 17.5227C19.7142 17.4774 19.6069 17.402 19.5288 17.2971C19.3936 17.1145 19.3718 16.8715 19.4439 16.615C19.6054 16.6663 19.7871 16.695 19.9793 16.695C20.107 16.695 20.2309 16.6822 20.3465 16.658C20.0717 16.9266 19.8952 17.2375 19.8434 17.5227ZM21.1297 16.1562C21.1657 16.0838 21.1845 16.0069 21.1845 15.9276C21.1845 15.69 21.0148 15.4779 20.749 15.3368C20.9262 15.2757 21.1004 15.244 21.2611 15.244C21.5359 15.244 21.7687 15.3361 21.9069 15.5232C22.0232 15.6809 22.0555 15.8839 22.0157 16.1012C21.9159 16.0665 21.804 16.0483 21.6838 16.0483C21.5111 16.0483 21.3219 16.0846 21.1297 16.1562Z" fill="#F6EBD9"/>
<path d="M19.9795 16.695C19.7873 16.695 19.6055 16.6663 19.4441 16.615C19.5372 16.283 19.7888 15.9291 20.159 15.653C20.3504 15.5111 20.5517 15.4055 20.7492 15.3368C21.015 15.4779 21.1847 15.6899 21.1847 15.9276C21.1847 16.0068 21.1659 16.0838 21.1299 16.1562C20.9459 16.2249 20.7597 16.3252 20.5817 16.458C20.4968 16.5207 20.4188 16.5878 20.3467 16.658C20.231 16.6821 20.1071 16.695 19.9795 16.695Z" fill="#F9F0E2"/>
<path d="M19.8622 21.0924C19.8126 21.0924 19.7638 21.0894 19.7173 21.0833C19.6767 21.0599 19.6354 21.0366 19.5926 21.0154C19.4905 20.9641 19.3869 20.9234 19.2848 20.8924C19.26 20.869 19.2367 20.8426 19.2157 20.8147C18.9927 20.5107 19.0783 20.0436 19.3906 19.6218C19.6174 19.5132 19.7818 19.3547 19.8434 19.1714C19.8442 19.1706 19.8457 19.1698 19.8464 19.1691C20.2091 18.8997 20.6093 18.7616 20.948 18.7616C21.0937 18.7616 21.2281 18.7873 21.3422 18.8394C21.2626 19.1004 21.2205 19.3811 21.2205 19.6844C21.2198 19.9085 21.2423 20.1439 21.2881 20.3914C21.1935 20.4956 21.0854 20.5936 20.9645 20.6842C20.6011 20.9543 20.2001 21.0924 19.8622 21.0924Z" fill="#F6EBD9"/>
<path d="M21.2883 20.3914C21.2424 20.1439 21.2199 19.9085 21.2207 19.6844C21.2207 19.3811 21.2627 19.1004 21.3423 18.8393C21.4437 18.8854 21.5293 18.9525 21.5939 19.0408C21.8462 19.3819 21.705 19.9342 21.2883 20.3914Z" fill="white"/>
<path d="M19.3907 19.6218C19.5101 19.4611 19.6625 19.3072 19.8435 19.1714C19.7819 19.3547 19.6175 19.5132 19.3907 19.6218Z" fill="#F9F0E2"/>
<path d="M20.5981 18.3799C20.3233 18.3799 20.0905 18.2878 19.9523 18.1007C19.836 17.943 19.8029 17.74 19.8435 17.5227C19.9426 17.5582 20.0552 17.5755 20.1754 17.5755C20.5133 17.5755 20.9142 17.4367 21.2769 17.1666C21.6854 16.8618 21.9497 16.4611 22.0158 16.1012C22.1442 16.1472 22.2523 16.2219 22.3304 16.3275C22.6398 16.7463 22.3567 17.4812 21.7004 17.9709C21.337 18.241 20.936 18.3799 20.5981 18.3799Z" fill="#F6EBD9"/>
<path d="M20.1753 17.5755C20.0552 17.5755 19.9426 17.5582 19.8434 17.5227C19.8953 17.2375 20.0717 16.9266 20.3465 16.658C20.719 16.5826 21.0133 16.3939 21.1297 16.1562C21.322 16.0845 21.5112 16.0483 21.6839 16.0483C21.804 16.0483 21.9159 16.0664 22.0158 16.1012C21.9497 16.4611 21.6854 16.8617 21.2769 17.1666C20.9142 17.4367 20.5132 17.5755 20.1753 17.5755Z" fill="#F9F0E2"/>
<path d="M20.3466 16.658C20.4187 16.5878 20.4968 16.5207 20.5816 16.458C20.7596 16.3252 20.9458 16.2249 21.1298 16.1562C21.0134 16.3939 20.7191 16.5826 20.3466 16.658Z" fill="#FBF4E9"/>
<path d="M23.6159 16.5479C23.3411 16.5479 23.1076 16.4566 22.9694 16.2694C22.8185 16.065 22.8087 15.785 22.9146 15.4953C23.0618 15.53 23.2059 15.5466 23.3426 15.5466C23.6858 15.5466 23.9816 15.4425 24.1476 15.2599C24.2091 15.5632 24.5478 15.8099 24.9961 15.8952C24.9127 15.9812 24.8196 16.0634 24.7175 16.1389C24.3548 16.409 23.9539 16.5479 23.6159 16.5479ZM24.2782 14.8004C24.2497 14.6517 24.1619 14.5038 24.0304 14.3725C24.1859 14.3031 24.3413 14.2571 24.4892 14.2337C24.5726 14.322 24.671 14.4057 24.7828 14.4804C24.5681 14.5521 24.3916 14.6638 24.2782 14.8004Z" fill="#F6EBD9"/>
<path d="M24.9961 15.8952C24.5478 15.8099 24.2092 15.5632 24.1476 15.2599C24.2077 15.1942 24.2505 15.1173 24.2722 15.032C24.2918 14.9558 24.2925 14.8781 24.2782 14.8003C24.3916 14.6638 24.5681 14.5521 24.7829 14.4804C24.8482 14.5249 24.9188 14.5657 24.9931 14.6034C25.1493 14.6819 25.3085 14.7355 25.4616 14.7656C25.5217 15.1052 25.346 15.5345 24.9961 15.8952Z" fill="#F9F0E2"/>
<path d="M34.0886 15.7812C33.9858 15.7812 33.8881 15.7684 33.7995 15.7427C33.8889 15.6348 33.94 15.5126 33.94 15.3828C33.94 15.1112 33.7177 14.8728 33.3835 14.7362C33.4932 14.4299 33.7327 14.1114 34.0721 13.8579C34.4348 13.5886 34.835 13.4497 35.1729 13.4497C35.4477 13.4497 35.6813 13.5418 35.8202 13.7289C35.8675 13.7923 35.9005 13.864 35.9208 13.9402C35.8728 13.9711 35.8255 14.0036 35.7789 14.0383C35.2217 14.4532 34.9326 15.0456 35.0475 15.4711C34.7246 15.6763 34.383 15.7812 34.0886 15.7812Z" fill="#F6EBD9"/>
<path d="M33.7996 15.7427C33.6517 15.699 33.5278 15.619 33.4407 15.502C33.292 15.2998 33.2808 15.0229 33.3836 14.7362C33.7178 14.8728 33.9401 15.1112 33.9401 15.3828C33.9401 15.5126 33.889 15.6348 33.7996 15.7427Z" fill="#F9F0E2"/>
<path d="M24.8002 26.8782C24.5253 26.8782 24.2918 26.7861 24.1536 26.599C24.1033 26.5303 24.068 26.4534 24.0485 26.3704C24.433 26.0535 24.6703 25.6536 24.7093 25.302C24.9766 25.2763 25.1914 25.1623 25.289 24.9654C25.3371 24.8688 25.3521 24.7625 25.3386 24.6515C25.5285 24.5821 25.7148 24.5467 25.8852 24.5467C25.8965 24.5467 25.9077 24.5467 25.919 24.5474C25.919 24.7044 25.9926 24.85 26.1195 24.9715C26.136 25.1171 26.2164 25.2514 26.3425 25.3631C25.8867 25.4725 25.5623 25.7524 25.5623 26.0806C25.5623 26.2526 25.6517 26.4119 25.8019 26.5394C25.467 26.7635 25.1073 26.8782 24.8002 26.8782Z" fill="#F6EBD9"/>
<path d="M26.3425 25.3631C26.2164 25.2514 26.136 25.1171 26.1195 24.9715C26.2502 25.096 26.4372 25.1948 26.6564 25.2536C26.6564 25.2748 26.6549 25.2959 26.6527 25.317C26.5445 25.3238 26.4409 25.3397 26.3425 25.3631Z" fill="#F9F0E2"/>
<path d="M19.284 25.8467C19.0092 25.8467 18.7757 25.7547 18.6375 25.5676C18.3319 25.1526 18.6045 24.4305 19.2442 23.9408C19.4169 24.0012 19.6152 24.0351 19.8262 24.0351C20.2722 24.0351 20.6619 23.8819 20.8706 23.6533C20.9262 23.6918 20.975 23.7386 21.0156 23.7929C21.1642 23.9944 21.1763 24.2675 21.0764 24.5519C20.4787 24.5972 20.0146 24.9202 20.0146 25.3133C20.0146 25.4204 20.0484 25.5215 20.1107 25.6143C19.8284 25.7675 19.5386 25.8467 19.284 25.8467Z" fill="#F6EBD9"/>
<path d="M19.8263 24.0351C19.6153 24.0351 19.417 24.0011 19.2443 23.9408C19.2526 23.9347 19.2601 23.9287 19.2684 23.9227C19.631 23.6533 20.0313 23.5145 20.3692 23.5145C20.5629 23.5145 20.7363 23.5605 20.8708 23.6533C20.662 23.8819 20.2723 24.0351 19.8263 24.0351Z" fill="#F9F0E2"/>
<path d="M20.1108 25.6143C20.0484 25.5215 20.0146 25.4204 20.0146 25.3133C20.0146 24.9202 20.4787 24.5972 21.0764 24.5519C20.9683 24.8605 20.7272 25.1827 20.3848 25.4378C20.2955 25.5049 20.2031 25.5638 20.1108 25.6143Z" fill="#F9F0E2"/>
<path d="M16.2257 25.314C15.9501 25.314 15.7166 25.222 15.5784 25.0341C15.2691 24.6153 15.5521 23.8804 16.2092 23.3915C16.5283 23.153 16.8767 23.0172 17.1868 22.9885C17.1508 23.2006 17.1846 23.3983 17.298 23.5522C17.4369 23.7401 17.6704 23.8321 17.9452 23.8321C17.9858 23.8321 18.0263 23.8299 18.0676 23.8261C18.0061 24.1898 17.741 24.5965 17.3265 24.9058C16.9638 25.1752 16.5636 25.314 16.2257 25.314Z" fill="#F6EBD9"/>
<path d="M27.7325 15.6205C27.5267 15.6205 27.297 15.5722 27.0695 15.4726C27.1513 15.484 27.2361 15.49 27.3225 15.49C27.3758 15.49 27.4284 15.4877 27.4802 15.4832C27.5658 15.5375 27.6649 15.5836 27.773 15.6198C27.7595 15.6205 27.746 15.6205 27.7325 15.6205ZM26.5025 14.1597C26.4965 14.0858 26.4762 14.0088 26.4447 13.9319C26.5371 13.8806 26.6475 13.8474 26.7691 13.833C26.7706 13.9002 26.7856 13.9658 26.8119 14.0277C26.6978 14.0617 26.5941 14.1062 26.5025 14.1597Z" fill="#F6EBD9"/>
<path d="M26.8118 14.0277C26.7855 13.9658 26.7705 13.9002 26.769 13.833C26.8155 13.827 26.8636 13.8247 26.9131 13.8247C27.1204 13.8247 27.3524 13.8738 27.5822 13.9741C27.4988 13.9621 27.4117 13.956 27.3224 13.956C27.1399 13.956 26.9672 13.9817 26.8118 14.0277Z" fill="#F9F0E2"/>
<path d="M27.3224 15.49C27.236 15.49 27.1512 15.484 27.0693 15.4727C27.0371 15.4591 27.0048 15.444 26.9725 15.4274C26.8103 15.3459 26.6669 15.2463 26.5475 15.1361C26.5385 14.9558 26.4326 14.7913 26.2606 14.663C26.3425 14.6087 26.4078 14.5385 26.4506 14.4525C26.4957 14.3627 26.5114 14.2631 26.5024 14.1598C26.594 14.1062 26.6977 14.0617 26.8118 14.0277C26.8951 14.2216 27.0949 14.3846 27.3599 14.4842C27.212 14.6117 27.1249 14.7694 27.1249 14.9392C27.1249 15.152 27.2608 15.3444 27.4801 15.4832C27.4283 15.4877 27.3757 15.49 27.3224 15.49Z" fill="#F9F0E2"/>
<path d="M27.3599 14.4842C27.0948 14.3846 26.8951 14.2216 26.8117 14.0277C26.9671 13.9817 27.1398 13.956 27.3223 13.956C27.4117 13.956 27.4988 13.962 27.5821 13.9741C27.6122 13.9869 27.643 14.0013 27.673 14.0164C27.7834 14.0722 27.8855 14.1363 27.9763 14.2058C27.7263 14.2548 27.5115 14.3536 27.3599 14.4842Z" fill="#FBF4E9"/>
<path d="M26.5475 15.1361C26.3965 14.9973 26.2847 14.8419 26.2208 14.6872C26.2343 14.6796 26.2479 14.6713 26.2606 14.663C26.4326 14.7913 26.5385 14.9558 26.5475 15.1361Z" fill="#FBF4E9"/>
<path d="M24.2985 13.2444C24.4314 13.0837 24.662 13 24.933 13C25.1373 13 25.3656 13.0475 25.5916 13.1456C25.1478 13.1584 24.7183 13.1924 24.2985 13.2444Z" fill="white"/>
<path d="M26.1367 14.583C25.9242 14.4646 25.6464 14.3929 25.3423 14.3929C25.313 14.3929 25.2837 14.3936 25.2544 14.3952C25.1147 14.2759 24.9218 14.2171 24.701 14.2171C24.6327 14.2171 24.5621 14.2224 24.4893 14.2337C24.2167 13.9447 24.1056 13.6044 24.2355 13.3426C24.2527 13.3071 24.2745 13.2747 24.2985 13.2445C24.7183 13.1924 25.1478 13.1585 25.5916 13.1456C25.6254 13.16 25.6592 13.1758 25.6929 13.1924C26.0609 13.3773 26.3305 13.6549 26.4446 13.9319C26.344 13.9884 26.2644 14.0669 26.2148 14.1665C26.1645 14.2684 26.1503 14.3823 26.1675 14.5C26.1548 14.5272 26.1442 14.5544 26.1367 14.583Z" fill="#F6EBD9"/>
<path d="M26.1954 14.6178C26.1766 14.6056 26.157 14.5943 26.1367 14.583C26.1442 14.5542 26.1547 14.527 26.1675 14.4997C26.1736 14.5391 26.1833 14.5784 26.1954 14.6178Z" fill="#F9F0E2"/>
<path d="M25.7522 14.7951C25.6591 14.7951 25.5615 14.7852 25.4616 14.7656C25.4443 14.6668 25.4068 14.5755 25.3475 14.4955C25.3204 14.4585 25.2889 14.4246 25.2543 14.3951C25.2836 14.3936 25.3129 14.3929 25.3422 14.3929C25.6463 14.3929 25.9241 14.4646 26.1366 14.583C26.1231 14.6283 26.1164 14.6751 26.1164 14.7226C26.1164 14.7271 26.1164 14.7309 26.1164 14.7354C26.009 14.7754 25.8851 14.7951 25.7522 14.7951Z" fill="#F9F0E2"/>
<path d="M26.1164 14.7355C26.1164 14.7309 26.1164 14.7271 26.1164 14.7226C26.1164 14.6749 26.1232 14.6281 26.1367 14.5827C26.157 14.594 26.1766 14.6054 26.1954 14.6175C26.203 14.6409 26.2113 14.6644 26.221 14.6871C26.1887 14.7052 26.1533 14.7219 26.1164 14.7355Z" fill="#FBF4E9"/>
<path d="M24.7829 14.4804C24.671 14.4057 24.5726 14.322 24.4893 14.2337C24.5621 14.2224 24.6327 14.2171 24.701 14.2171C24.9218 14.2171 25.1147 14.276 25.2544 14.3952C25.0855 14.4027 24.9255 14.4329 24.7829 14.4804Z" fill="#F9F0E2"/>
<path d="M25.4616 14.7656C25.3084 14.7354 25.1493 14.6819 24.9931 14.6034C24.9187 14.5657 24.8482 14.5249 24.7828 14.4804C24.9255 14.4329 25.0854 14.4027 25.2544 14.3951C25.2889 14.4246 25.3205 14.4585 25.3475 14.4955C25.4068 14.5755 25.4443 14.6668 25.4616 14.7656Z" fill="#FBF4E9"/>
<path d="M26.1675 14.5C26.1503 14.3823 26.1645 14.2684 26.2148 14.1665C26.2644 14.0669 26.344 13.9884 26.4446 13.9319C26.4761 14.0088 26.4964 14.0858 26.5024 14.1597C26.3477 14.251 26.2306 14.368 26.1675 14.5Z" fill="#F9F0E2"/>
<path d="M26.2606 14.663C26.2396 14.6472 26.2178 14.6328 26.1953 14.6177C26.1832 14.5785 26.1735 14.5393 26.1675 14.5C26.2306 14.368 26.3477 14.251 26.5024 14.1597C26.5114 14.2631 26.4956 14.3627 26.4506 14.4525C26.4078 14.5385 26.3424 14.6087 26.2606 14.663Z" fill="#FBF4E9"/>
<path d="M26.2209 14.6871C26.2111 14.6644 26.2028 14.641 26.1953 14.6175C26.2179 14.6327 26.2397 14.6471 26.2608 14.6629C26.248 14.6713 26.2345 14.6796 26.2209 14.6871Z" fill="#FCF7EE"/>
<path d="M30.9508 16.0053C30.6459 15.9797 30.3388 15.9608 30.0317 15.948C29.9693 15.9246 29.907 15.8974 29.8454 15.8665C29.6082 15.7473 29.4122 15.5896 29.2725 15.4183C29.4377 15.287 29.5361 15.121 29.5361 14.9392C29.5361 14.7437 29.4204 14.5649 29.2305 14.4291C29.3656 14.3189 29.5616 14.2631 29.7839 14.2631C29.8056 14.2631 29.8274 14.2631 29.85 14.2646C30.0354 14.5325 30.4544 14.7203 30.944 14.7226C31.2917 15.0297 31.4486 15.4221 31.3029 15.7156C31.2346 15.8529 31.11 15.9502 30.9508 16.0053Z" fill="#F6EBD9"/>
<path d="M30.6037 16.0589C30.425 16.0589 30.229 16.0227 30.0316 15.948C30.3387 15.9608 30.6458 15.9797 30.9507 16.0053C30.8478 16.0408 30.7299 16.0589 30.6037 16.0589Z" fill="white"/>
<path d="M30.9438 14.7226C30.4543 14.7203 30.0353 14.5325 29.8498 14.2646C30.0683 14.2752 30.3101 14.3378 30.5451 14.4555C30.6961 14.5317 30.8297 14.6223 30.9438 14.7226Z" fill="#F9F0E2"/>
<path d="M36.5501 15.9669C36.4901 15.9269 36.4345 15.8846 36.3827 15.8408C36.5554 15.7729 36.7296 15.6771 36.8963 15.5534C37.2139 15.3157 37.4437 15.0214 37.5623 14.7332C37.6277 14.7709 37.69 14.8124 37.7478 14.8554C37.8266 15.0591 37.9911 15.2644 38.2164 15.4342C38.2404 15.4968 38.2569 15.5586 38.2644 15.619C38.0849 15.5511 37.8755 15.5126 37.6517 15.5126C37.1614 15.5126 36.7379 15.699 36.5501 15.9669Z" fill="#F6EBD9"/>
<path d="M24.6949 25.0243C24.6746 24.9413 24.6401 24.8643 24.589 24.7957C24.4508 24.6085 24.2181 24.5165 23.9432 24.5165C23.7337 24.5165 23.4995 24.5701 23.2652 24.6757C23.1721 24.564 23.103 24.4456 23.0617 24.3286C23.1886 24.2713 23.2877 24.183 23.3455 24.0668C23.4161 23.9242 23.4161 23.7589 23.3576 23.5922C23.4755 23.5394 23.6159 23.5122 23.7706 23.5122C24.0063 23.5122 24.2729 23.5748 24.5319 23.7046C24.9922 23.9363 25.2986 24.3128 25.3384 24.6516C25.1522 24.7202 24.963 24.8213 24.7835 24.9549C24.7527 24.9775 24.7234 25.0009 24.6949 25.0243Z" fill="#F6EBD9"/>
<path d="M24.7092 25.302C24.7204 25.2046 24.7159 25.1111 24.6949 25.0243C24.7234 25.0009 24.7527 24.9775 24.7835 24.9549C24.963 24.8213 25.1522 24.7202 25.3384 24.6515C25.3519 24.7625 25.3369 24.8688 25.2889 24.9654C25.1912 25.1624 24.9765 25.2763 24.7092 25.302Z" fill="#F9F0E2"/>
<path d="M22.6473 24.4093C22.4123 24.4093 22.1465 24.3467 21.8882 24.2177C21.289 23.9151 20.9518 23.3688 21.1193 22.9802C21.5082 22.9621 21.8461 22.8278 22.0459 22.6309C22.2216 22.6573 22.407 22.7154 22.5895 22.8067C22.9777 23.0014 23.2563 23.3002 23.3577 23.5922C23.2308 23.6488 23.1317 23.737 23.0738 23.8532C23.0033 23.9958 23.004 24.1611 23.0618 24.3286C22.9439 24.3822 22.802 24.4093 22.6473 24.4093Z" fill="#F6EBD9"/>
<path d="M21.1193 22.9803C21.1231 22.972 21.1268 22.9637 21.1306 22.9561C21.2425 22.7313 21.5068 22.6136 21.8274 22.6136C21.898 22.6136 21.9708 22.6196 22.0459 22.6309C21.8462 22.8278 21.5083 22.9622 21.1193 22.9803Z" fill="#F9F0E2"/>
<path d="M23.0619 24.3286C23.0041 24.1611 23.0033 23.9958 23.0739 23.8532C23.1317 23.737 23.2308 23.6488 23.3577 23.5922C23.4163 23.7589 23.4163 23.9242 23.3457 24.0668C23.2879 24.183 23.1888 24.2712 23.0619 24.3286Z" fill="#F9F0E2"/>
<path d="M17.322 20.9905C17.2221 20.955 17.1102 20.9377 16.9901 20.9377C16.93 20.9377 16.8684 20.9422 16.8046 20.9505C16.7813 20.9452 16.7581 20.9384 16.734 20.9317C16.6409 20.6306 16.3571 20.319 15.9561 20.1175C15.851 20.0647 15.7443 20.0232 15.6392 19.9923C15.5904 19.8346 15.5934 19.6791 15.6595 19.5448C15.7721 19.32 16.0365 19.203 16.3578 19.203C16.5936 19.203 16.8594 19.2657 17.1177 19.3962C17.729 19.7025 18.0684 20.2669 17.8754 20.6555C17.7808 20.8464 17.5773 20.9603 17.322 20.9905Z" fill="#F6EBD9"/>
<path d="M19.5889 18.5172C19.3682 18.3497 19.0355 18.2425 18.6646 18.2425C18.4588 18.2425 18.2644 18.2757 18.0947 18.3338C17.6253 18.0139 17.3888 17.5416 17.557 17.2013C17.6689 16.9757 17.9332 16.8587 18.2538 16.8587C18.4896 16.8587 18.7554 16.9213 19.0145 17.0511C19.6257 17.3582 19.9659 17.9218 19.7714 18.3112C19.7301 18.3949 19.6678 18.4636 19.5889 18.5172Z" fill="#F6EBD9"/>
<path d="M19.073 18.6545C18.8372 18.6545 18.5722 18.5919 18.3146 18.4628C18.2365 18.4236 18.1629 18.3806 18.0946 18.3338C18.2643 18.2757 18.4588 18.2425 18.6645 18.2425C19.0355 18.2425 19.3681 18.3496 19.5889 18.5172C19.4552 18.6077 19.275 18.6545 19.073 18.6545Z" fill="#F9F0E2"/>
<path d="M22.9146 15.4953C22.9026 15.4923 22.8906 15.4892 22.8779 15.4862C22.7097 15.4417 22.555 15.3783 22.4198 15.3006C22.4296 15.3006 22.4393 15.3014 22.4491 15.3014C22.7712 15.3014 23.0356 15.1837 23.1474 14.958C23.3036 14.6434 23.1129 14.2156 22.7119 13.9009C22.7419 13.8994 22.7727 13.8979 22.8035 13.8979C22.9522 13.8979 23.1091 13.9175 23.2691 13.9583C23.5829 14.0405 23.8488 14.1914 24.0305 14.3725C23.8848 14.4367 23.7399 14.5212 23.6002 14.6253C23.2638 14.8758 23.0258 15.1912 22.9146 15.4953Z" fill="#F6EBD9"/>
<path d="M23.3426 15.5466C23.2059 15.5466 23.0617 15.53 22.9146 15.4953C23.0257 15.1912 23.2637 14.8758 23.6001 14.6253C23.7398 14.5212 23.8847 14.4367 24.0304 14.3725C24.1618 14.5038 24.2496 14.6517 24.2781 14.8003C24.188 14.9075 24.137 15.0297 24.137 15.1603C24.137 15.1942 24.1407 15.2274 24.1475 15.2599C23.9815 15.4425 23.6857 15.5466 23.3426 15.5466Z" fill="#F9F0E2"/>
<path d="M24.1476 15.2599C24.1408 15.2274 24.1371 15.1942 24.1371 15.1603C24.1371 15.0297 24.1881 14.9075 24.2782 14.8004C24.2925 14.8781 24.2918 14.9558 24.2722 15.032C24.2505 15.1173 24.2077 15.1942 24.1476 15.2599Z" fill="#FBF4E9"/>
<path d="M31.6776 15.0131C31.5229 14.9203 31.3892 14.8109 31.2826 14.6939C31.7887 14.6026 32.1604 14.3076 32.1604 13.956C32.1604 13.7802 32.0673 13.618 31.9111 13.4889C32.1018 13.5116 32.3053 13.5719 32.505 13.6708C33.0074 13.9243 33.3265 14.3506 33.316 14.7105C33.1433 14.6502 32.9451 14.6155 32.7341 14.6155C32.279 14.6155 31.8826 14.7762 31.6776 15.0131Z" fill="#F6EBD9"/>
<path d="M31.2825 14.694C31.0227 14.4088 30.9198 14.0775 31.0475 13.8217C31.1586 13.5961 31.4229 13.4792 31.7443 13.4792C31.7984 13.4792 31.854 13.4822 31.911 13.489C32.0672 13.618 32.1603 13.7802 32.1603 13.956C32.1603 14.3076 31.7886 14.6027 31.2825 14.694Z" fill="#F9F0E2"/>
<path d="M32.5635 15.2749C32.3285 15.2749 32.0627 15.2123 31.8044 15.0825C31.7609 15.0606 31.718 15.0372 31.6775 15.0131C31.8825 14.7762 32.279 14.6155 32.734 14.6155C32.945 14.6155 33.1432 14.6502 33.3159 14.7105C33.3137 14.7882 33.2957 14.8629 33.2619 14.9316C33.15 15.1572 32.8849 15.2749 32.5635 15.2749Z" fill="#F9F0E2"/>
<path d="M36.3556 17.4465C36.2002 17.4465 36.0312 17.4186 35.86 17.3628C35.658 17.2239 35.4335 17.0964 35.1894 16.9802C34.847 16.6739 34.6931 16.2845 34.838 15.9925C34.9026 15.8612 35.0205 15.7669 35.1714 15.7103C35.3118 15.8786 35.5349 15.9608 35.7954 15.9608C35.9621 15.9608 36.1446 15.9276 36.3301 15.8605C36.4029 15.899 36.472 15.9412 36.5365 15.9865C36.4772 16.077 36.4449 16.1759 36.4449 16.28C36.4449 16.5765 36.7108 16.8346 37.099 16.9614C37.0907 17.0074 37.0765 17.0519 37.0569 17.0942C36.8061 17.1643 36.6004 17.2873 36.4735 17.4412C36.4352 17.445 36.3961 17.4465 36.3556 17.4465Z" fill="#F6EBD9"/>
<path d="M35.86 17.3627C35.857 17.362 35.854 17.3612 35.851 17.3597C35.6527 17.2239 35.4334 17.0994 35.1954 16.9855C35.1932 16.9832 35.1916 16.9817 35.1894 16.9802C35.4334 17.0964 35.658 17.2239 35.86 17.3627Z" fill="white"/>
<path d="M35.851 17.3597C35.7654 17.3318 35.6798 17.2963 35.595 17.2533C35.444 17.1779 35.3096 17.0858 35.1955 16.9855C35.4335 17.0994 35.6528 17.2239 35.851 17.3597Z" fill="#FFCDB1"/>
<path d="M36.4735 17.4412C36.6004 17.2873 36.8062 17.1643 37.0569 17.0941C37.0554 17.0972 37.0539 17.1009 37.0524 17.1039C36.9548 17.3009 36.7408 17.4156 36.4735 17.4412Z" fill="#F9F0E2"/>
<path d="M15.9051 23.2692C15.6302 23.2692 15.3967 23.1772 15.2578 22.9901C15.0077 22.6505 15.1452 22.1042 15.5559 21.6485C15.7151 21.6968 15.8713 21.7209 16.0162 21.7209C16.3368 21.7209 16.6019 21.6032 16.713 21.3776C16.7753 21.2524 16.7829 21.1083 16.7431 20.9604C16.7633 20.9566 16.7843 20.9536 16.8046 20.9506C16.9338 20.983 17.0592 20.9989 17.1778 20.9989C17.2274 20.9989 17.2754 20.9958 17.322 20.9905C17.4504 21.0358 17.5585 21.1113 17.6366 21.2162C17.6877 21.2856 17.7222 21.364 17.7417 21.4478C17.0862 21.4546 16.5576 21.7949 16.5576 22.2152C16.5576 22.4672 16.7491 22.6913 17.0442 22.8309C17.0314 22.8407 17.0186 22.8505 17.0059 22.8603C16.6432 23.1304 16.243 23.2692 15.9051 23.2692Z" fill="#F6EBD9"/>
<path d="M17.0441 22.8309C16.749 22.6913 16.5576 22.4672 16.5576 22.2152C16.5576 21.7949 17.0862 21.4546 17.7417 21.4478C17.7965 21.6802 17.735 21.9601 17.5773 22.2325C17.4909 22.3314 17.4173 22.434 17.3573 22.5373C17.2664 22.6407 17.162 22.7396 17.0441 22.8309Z" fill="#F9F0E2"/>
<path d="M17.1778 20.9989C17.0592 20.9989 16.9338 20.983 16.8046 20.9506C16.8685 20.9423 16.93 20.9377 16.9901 20.9377C17.1102 20.9377 17.2221 20.9551 17.322 20.9905C17.2754 20.9958 17.2274 20.9989 17.1778 20.9989Z" fill="#F9F0E2"/>
<path d="M19.9148 22.5034C19.8855 22.5018 19.8562 22.5011 19.8262 22.5011C19.8006 22.5011 19.7751 22.5018 19.7496 22.5026C19.8367 22.231 19.8194 21.9722 19.6767 21.7798C19.5386 21.5926 19.305 21.5006 19.031 21.5006C18.862 21.5006 18.678 21.5353 18.4911 21.6032C18.3717 21.5459 18.2343 21.5013 18.0856 21.4757C18.0728 21.3655 18.0878 21.2606 18.1351 21.1656C18.2463 20.94 18.5106 20.823 18.832 20.823C18.9746 20.823 19.1286 20.8456 19.2848 20.8924C19.3959 20.9981 19.5453 21.0614 19.7173 21.0833C19.9636 21.2312 20.1566 21.4214 20.2744 21.6183C20.0011 21.7586 19.8262 21.9737 19.8262 22.2151C19.8262 22.317 19.8577 22.4143 19.9148 22.5034Z" fill="#F6EBD9"/>
<path d="M19.7068 22.6173C19.7234 22.5787 19.7377 22.5402 19.7498 22.5023C19.7753 22.5016 19.8009 22.5008 19.8265 22.5008C19.8566 22.5008 19.886 22.5016 19.9154 22.5031C19.9304 22.5273 19.9485 22.5515 19.9681 22.5749C19.8883 22.5992 19.8002 22.6135 19.7068 22.6173Z" fill="#F9F0E2"/>
<path d="M20.1002 22.5207C20.0402 22.5117 19.9779 22.5056 19.9148 22.5034C19.8577 22.4143 19.8262 22.317 19.8262 22.2151C19.8262 21.9737 20.0011 21.7587 20.2745 21.6183C20.4096 21.8447 20.4457 22.0816 20.3503 22.2748C20.2977 22.3811 20.2106 22.4634 20.1002 22.5207Z" fill="#F9F0E2"/>
<path d="M19.9674 22.575C19.9479 22.5516 19.9298 22.5274 19.9147 22.5032C19.978 22.5054 20.0404 22.5115 20.1007 22.5206C20.0593 22.5425 20.0148 22.5607 19.9674 22.575Z" fill="#FBF4E9"/>
<path d="M18.1712 21.7511C18.1247 21.6591 18.0954 21.5655 18.0856 21.4757C18.2343 21.5014 18.3717 21.5459 18.4911 21.6032C18.3845 21.6417 18.2771 21.6915 18.1712 21.7511Z" fill="#F9F0E2"/>
<path d="M19.7172 21.0833C19.5453 21.0615 19.3959 20.9981 19.2847 20.8924C19.3868 20.9234 19.4905 20.9641 19.5926 21.0154C19.6354 21.0366 19.6767 21.06 19.7172 21.0833Z" fill="#F9F0E2"/>
<path d="M29.8484 25.5789C29.7463 25.5789 29.6374 25.5668 29.5263 25.5426C29.4429 25.4815 29.3513 25.4249 29.2522 25.3759C29.1073 25.3027 28.9594 25.2514 28.8167 25.2197C28.7041 25.1375 28.6072 25.0461 28.5269 24.9503C28.5276 24.939 28.5284 24.9269 28.5284 24.9156C28.5284 24.7587 28.454 24.6131 28.3279 24.4916C28.3219 24.4335 28.3046 24.3776 28.2791 24.3233C28.2843 24.2539 28.3016 24.1875 28.3324 24.1256C28.4435 23.9 28.7078 23.7831 29.0292 23.7831C29.2642 23.7831 29.5308 23.8457 29.7906 23.9762C30.1135 24.1384 30.3605 24.3724 30.4927 24.6153C30.0759 24.736 29.7869 25.0031 29.7869 25.3133C29.7869 25.4068 29.8124 25.4959 29.8604 25.5789C29.8567 25.5789 29.8529 25.5789 29.8484 25.5789Z" fill="#F6EBD9"/>
<path d="M28.5268 24.9503C28.436 24.8424 28.3684 24.7285 28.3264 24.6153C28.3294 24.5927 28.3309 24.5693 28.3309 24.5467C28.3309 24.5278 28.3301 24.5097 28.3279 24.4916C28.454 24.6131 28.5283 24.7587 28.5283 24.9156C28.5283 24.9269 28.5276 24.939 28.5268 24.9503Z" fill="#F9F0E2"/>
<path d="M29.313 26.9778C29.0772 26.9778 28.8107 26.9152 28.5516 26.7854C28.288 26.6526 28.0755 26.4722 27.9336 26.2798C27.9607 26.2165 27.9749 26.1493 27.9749 26.0806C27.9749 25.9161 27.8931 25.763 27.7542 25.6377C27.7542 25.6355 27.7549 25.6332 27.7557 25.6309C28.077 25.5525 28.3323 25.3887 28.4525 25.1835C28.4653 25.1827 28.478 25.1827 28.4908 25.1827C28.5944 25.1827 28.704 25.1948 28.8167 25.2197C28.9 25.2808 28.9909 25.3367 29.0892 25.3865C29.2349 25.4596 29.3828 25.511 29.5263 25.5426C29.9595 25.8596 30.1713 26.3085 30.0098 26.6352C29.898 26.8608 29.6336 26.9778 29.313 26.9778Z" fill="#F6EBD9"/>
<path d="M27.7556 25.6309C27.7646 25.594 27.7774 25.5585 27.7939 25.5238C27.9013 25.3088 28.1491 25.1918 28.4525 25.1835C28.3323 25.3887 28.077 25.5525 27.7556 25.6309Z" fill="#F9F0E2"/>
<path d="M29.5263 25.5427C29.3829 25.511 29.2349 25.4597 29.0893 25.3865C28.9909 25.3367 28.9001 25.2808 28.8167 25.2197C28.9594 25.2514 29.1073 25.3027 29.2522 25.3759C29.3513 25.425 29.443 25.4815 29.5263 25.5427Z" fill="#F9F0E2"/>
<path d="M34.9821 26.6631C35.0362 26.5756 35.0662 26.4805 35.0662 26.3802C35.0662 25.9554 34.5256 25.6136 33.8595 25.6136C33.5975 25.6136 33.3557 25.6664 33.1574 25.7562C33.1116 25.6392 33.0944 25.5223 33.1086 25.4136C33.1199 25.4136 33.1319 25.4136 33.1432 25.4136C33.4646 25.4136 33.7304 25.2959 33.8415 25.0711C33.867 25.0198 33.8828 24.9654 33.8903 24.9096C34.1171 24.9156 34.3694 24.9783 34.6164 25.1012C34.8289 25.2084 35.0084 25.3465 35.1443 25.4974C35.1353 25.5351 35.1308 25.5736 35.1308 25.6136C35.1308 25.8067 35.2427 25.9825 35.4274 26.1176C35.4282 26.2029 35.4109 26.2851 35.3741 26.3613C35.2997 26.5092 35.1601 26.6111 34.9821 26.6631Z" fill="#F6EBD9"/>
<path d="M36.3549 24.7783C36.1199 24.7783 35.8533 24.7149 35.595 24.5859C34.9838 24.2773 34.6444 23.7144 34.8381 23.3243C34.9042 23.19 35.0258 23.0934 35.1813 23.0384C35.0979 23.3062 35.1159 23.562 35.2564 23.7529C35.3953 23.9408 35.6288 24.0321 35.9036 24.0321C36.0914 24.0321 36.2979 23.9898 36.5066 23.9053C36.4668 23.9815 36.445 24.063 36.445 24.1483C36.445 24.358 36.5779 24.5482 36.7919 24.6863C36.6703 24.7474 36.5201 24.7783 36.3549 24.7783Z" fill="#F6EBD9"/>
<path d="M41.9438 21.0999C42.0564 20.8721 42.1608 20.6427 42.2562 20.4118C42.299 20.562 42.2929 20.7091 42.2299 20.8374C42.1713 20.9543 42.0714 21.0426 41.9438 21.0999Z" fill="#6B655B"/>
<path d="M41.53 21.1807C41.4467 21.1807 41.3588 21.1724 41.2695 21.1565C41.2507 20.7672 40.7762 20.4511 40.1747 20.4163C40.1349 20.3786 40.0921 20.3431 40.047 20.3084C39.9472 20.1055 39.9284 19.8995 40.0132 19.7274C40.1251 19.5018 40.3894 19.3841 40.7108 19.3841C40.9466 19.3841 41.2132 19.4475 41.4722 19.5773C41.8822 19.7833 42.1698 20.1047 42.2562 20.4118C42.1608 20.6427 42.0564 20.8721 41.9438 21.0999C41.8266 21.1535 41.6847 21.1807 41.53 21.1807Z" fill="#F6EBD9"/>
<path d="M37.9415 22.8376C37.922 22.8278 37.9017 22.8188 37.8822 22.809C37.8206 22.7773 37.7613 22.7441 37.7057 22.7086C37.714 22.6822 37.7215 22.6565 37.7275 22.6309C37.9258 22.563 38.1278 22.4573 38.3185 22.3147C38.5903 22.1118 38.7983 21.8665 38.9267 21.6198C39.146 21.7986 39.2991 22.0107 39.3622 22.2174C39.3389 22.2159 39.3149 22.2159 39.2909 22.2159C38.953 22.2159 38.5527 22.3547 38.1901 22.6241C38.1 22.6912 38.0174 22.7629 37.9415 22.8376Z" fill="#F6EBD9"/>
<path d="M40.2317 15.9525C40.0117 15.8544 39.7895 15.8031 39.5875 15.7971C39.5732 15.7888 39.5597 15.7805 39.5462 15.7722C39.7376 15.7224 39.8871 15.6182 39.9644 15.4636C40.1394 15.1104 39.8781 14.6147 39.3719 14.2963C39.4583 14.2744 39.5522 14.2631 39.6521 14.2631C39.8878 14.2631 40.1544 14.3257 40.4142 14.4555C40.837 14.6683 41.1298 15.0033 41.2057 15.3195C40.9916 15.3859 40.7709 15.4983 40.5621 15.653C40.4382 15.7458 40.3279 15.8469 40.2317 15.9525Z" fill="#F6EBD9"/>
<path d="M33.1088 25.4136C33.1036 25.4136 33.0991 25.4136 33.0938 25.4129C33.0991 25.4106 33.1043 25.4083 33.1096 25.4061C33.1096 25.4083 33.1088 25.4106 33.1088 25.4136ZM33.7997 24.9103C33.8334 24.8749 33.865 24.8394 33.895 24.8032C33.8965 24.8394 33.8958 24.8749 33.8905 24.9096C33.8792 24.9088 33.8672 24.9088 33.8552 24.9088C33.8364 24.9088 33.8184 24.9096 33.7997 24.9103ZM31.6844 24.5874C31.5635 24.3701 31.5357 24.146 31.6273 23.9611C31.7384 23.7355 32.0035 23.6178 32.3249 23.6178C32.3602 23.6178 32.3962 23.6193 32.4323 23.6224C32.4187 23.6322 32.4052 23.642 32.3925 23.6518C32.0313 23.9212 31.7835 24.2637 31.6844 24.5874Z" fill="#F6EBD9"/>
<path d="M33.1434 25.4136C33.1321 25.4136 33.1201 25.4136 33.1088 25.4136C33.1088 25.4106 33.1096 25.4083 33.1096 25.4061C33.2447 25.3434 33.3799 25.2635 33.5098 25.1661C33.6172 25.0869 33.714 25.0001 33.7996 24.9103C33.8184 24.9096 33.8364 24.9088 33.8552 24.9088C33.8672 24.9088 33.8792 24.9088 33.8905 24.9096C33.883 24.9654 33.8672 25.0198 33.8417 25.0711C33.7305 25.2959 33.4647 25.4136 33.1434 25.4136Z" fill="#F9F0E2"/>
<path d="M38.3043 20.2337C38.1774 20.2013 38.0482 20.1538 37.9206 20.0896C37.3086 19.7818 36.9707 19.2181 37.1629 18.8288C37.223 18.7081 37.3266 18.619 37.4595 18.5617C37.4873 18.5624 37.5151 18.5632 37.5429 18.5632C37.7171 18.5632 37.883 18.5398 38.0332 18.4975C38.1098 18.5066 38.1879 18.5217 38.2675 18.5436C38.2675 18.5504 38.2675 18.5564 38.2675 18.5632C38.2675 18.9563 38.73 19.2792 39.3278 19.3253C39.4426 19.5381 39.4682 19.7576 39.3781 19.9387C39.3721 19.9508 39.3653 19.9629 39.3585 19.9749C39.2286 19.9417 39.1025 19.9259 38.9831 19.9259C38.6782 19.9259 38.4244 20.0315 38.3043 20.2337Z" fill="#F6EBD9"/>
<path d="M37.5429 18.5632C37.5151 18.5632 37.4873 18.5624 37.4595 18.5617C37.5744 18.5119 37.7118 18.487 37.8605 18.487C37.9168 18.487 37.9739 18.49 38.0332 18.4975C37.883 18.5398 37.7171 18.5632 37.5429 18.5632Z" fill="#F9F0E2"/>
<path d="M14.5279 20.8404C14.4317 20.6404 14.4145 20.4375 14.4986 20.267C14.5722 20.1191 14.7118 20.018 14.8905 19.9659C14.7539 20.2579 14.6337 20.5499 14.5279 20.8404Z" fill="white"/>
<path d="M15.5558 21.6485C15.4559 21.6183 15.3553 21.5776 15.2554 21.5278C14.9108 21.3542 14.6532 21.1 14.5278 20.8404C14.6337 20.5499 14.7538 20.2579 14.8905 19.9659C14.9829 19.9387 15.0865 19.9251 15.1961 19.9251C15.3358 19.9251 15.486 19.947 15.6391 19.9923C15.733 20.2926 16.0168 20.6042 16.4171 20.8057C16.5229 20.8585 16.6288 20.9007 16.7339 20.9317C16.7369 20.9415 16.7399 20.9506 16.7429 20.9604C16.4659 21.0102 16.1663 21.1399 15.8884 21.3467C15.7638 21.4395 15.6519 21.5414 15.5558 21.6485Z" fill="#F6EBD9"/>
<path d="M16.734 20.9317C16.6289 20.9007 16.523 20.8585 16.4172 20.8057C16.0169 20.6042 15.7331 20.2926 15.6392 19.9923C15.7443 20.0232 15.851 20.0647 15.9561 20.1175C16.3571 20.319 16.6409 20.6306 16.734 20.9317Z" fill="#F9F0E2"/>
<path d="M16.0162 21.7209C15.8713 21.7209 15.7151 21.6968 15.5559 21.6485C15.652 21.5414 15.7639 21.4395 15.8886 21.3467C16.1664 21.14 16.466 21.0102 16.7431 20.9604C16.7829 21.1083 16.7754 21.2524 16.7131 21.3776C16.6019 21.6033 16.3368 21.7209 16.0162 21.7209Z" fill="#F9F0E2"/>
<path d="M39.0205 20.7966C39.0017 20.7521 38.9777 20.7106 38.9492 20.6714C38.811 20.4835 38.5767 20.3915 38.3019 20.3915C38.2824 20.3915 38.2629 20.3922 38.2426 20.393C38.2516 20.35 38.2659 20.3077 38.2854 20.2677C38.2914 20.2564 38.2974 20.2451 38.3042 20.2337C38.4333 20.2662 38.5602 20.282 38.6796 20.282C38.9837 20.282 39.2368 20.1772 39.3584 19.9749C39.4861 20.0066 39.616 20.0542 39.7444 20.1183C39.8548 20.1741 39.9561 20.2383 40.047 20.3084C40.0642 20.3432 40.0845 20.3786 40.1063 20.4133C40.0928 20.4133 40.0785 20.4133 40.065 20.4133C39.6182 20.4133 39.2285 20.5673 39.0205 20.7966Z" fill="#F6EBD9"/>
<path d="M40.175 20.4164C40.1524 20.4148 40.1298 20.4141 40.1065 20.4133C40.0846 20.3785 40.0643 20.343 40.047 20.3082C40.0922 20.343 40.1351 20.3785 40.175 20.4164Z" fill="#F9F0E2"/>
<path d="M38.6796 20.282C38.5602 20.282 38.4333 20.2662 38.3041 20.2337C38.4243 20.0315 38.6781 19.9259 38.9829 19.9259C39.1023 19.9259 39.2285 19.9417 39.3584 19.9749C39.2367 20.1771 38.9837 20.282 38.6796 20.282Z" fill="#F9F0E2"/>
<path d="M41.5301 19.3841C41.2944 19.3841 41.0285 19.3215 40.7702 19.1917C40.6584 19.1359 40.5562 19.071 40.4646 19.0008C40.5998 18.8763 40.6794 18.7262 40.6794 18.5632C40.6794 18.2689 40.4196 18.0139 40.0389 17.8856C40.162 17.6902 40.4113 17.5891 40.7094 17.5891C40.9452 17.5891 41.211 17.6517 41.4708 17.7815C42.082 18.0878 42.4222 18.6515 42.2285 19.0416C42.1166 19.2672 41.8515 19.3841 41.5301 19.3841Z" fill="#F6EBD9"/>
<path d="M40.3676 17.5929C40.1318 17.5929 39.866 17.5295 39.6077 17.4005C39.1669 17.1779 38.8681 16.8232 38.8073 16.4965C38.8388 16.4279 38.8561 16.3547 38.8561 16.28C38.8561 16.2385 38.8508 16.1977 38.841 16.1577C38.844 16.1517 38.8463 16.1457 38.85 16.1389C38.9619 15.914 39.227 15.7971 39.5484 15.7971C39.5611 15.7971 39.5747 15.7971 39.5874 15.7971C39.628 15.822 39.67 15.8446 39.7128 15.8665C39.8645 15.9427 40.0192 15.9955 40.1679 16.0265C39.8059 16.4663 39.6941 16.9749 39.9306 17.2971C40.0687 17.4827 40.3 17.574 40.5726 17.5755C40.5073 17.5868 40.4389 17.5929 40.3676 17.5929Z" fill="#F6EBD9"/>
<path d="M40.1678 16.0265C40.0192 15.9955 39.8645 15.9427 39.7128 15.8665C39.67 15.8446 39.628 15.822 39.5874 15.7971C39.7894 15.8031 40.0117 15.8544 40.2317 15.9525C40.2099 15.9767 40.1889 16.0016 40.1678 16.0265Z" fill="#F9F0E2"/>
<path d="M39.2661 15.8061C39.0303 15.8061 38.7645 15.7428 38.5055 15.6137C38.4011 15.5609 38.3042 15.5006 38.2164 15.4342C38.1375 15.2304 37.9738 15.0252 37.7478 14.8554C37.6795 14.6789 37.675 14.5023 37.7493 14.3521C37.8605 14.128 38.1248 14.0103 38.4462 14.0103C38.6819 14.0103 38.9477 14.0737 39.2068 14.2035C39.2646 14.2322 39.3194 14.2631 39.372 14.2963C39.1813 14.3461 39.0326 14.4495 38.9553 14.6049C38.7803 14.9573 39.0416 15.4523 39.5462 15.7722C39.4606 15.7948 39.366 15.8061 39.2661 15.8061Z" fill="#F6EBD9"/>
<path d="M38.2164 15.4341C37.9911 15.2644 37.8267 15.0591 37.7478 14.8554C37.9738 15.0252 38.1375 15.2304 38.2164 15.4341Z" fill="#F9F0E2"/>
<path d="M39.5461 15.7722C39.0415 15.4523 38.7802 14.9573 38.9552 14.6049C39.0325 14.4495 39.1812 14.3461 39.3719 14.2963C39.878 14.6147 40.1393 15.1104 39.9644 15.4636C39.887 15.6183 39.7376 15.7224 39.5461 15.7722Z" fill="#F9F0E2"/>
<path d="M20.8835 14.1665C20.8692 14.0541 20.8842 13.9455 20.9323 13.8481C21.0442 13.6225 21.3092 13.5056 21.6306 13.5056C21.8386 13.5056 22.0714 13.5546 22.3012 13.6557C21.8078 13.7998 21.3347 13.9719 20.8835 14.1665Z" fill="white"/>
<path d="M22.4197 15.3006C22.1922 15.2961 21.9376 15.2327 21.6898 15.109C21.2318 14.8781 20.9269 14.5038 20.8834 14.1665C21.3346 13.9719 21.8077 13.7998 22.3011 13.6557C22.3311 13.6685 22.3611 13.6829 22.3912 13.698C22.5083 13.7568 22.6164 13.8255 22.7118 13.9009C22.286 13.9243 21.9504 14.113 21.8738 14.4118C21.795 14.7264 22.024 15.0735 22.4197 15.3006Z" fill="#F6EBD9"/>
<path d="M22.4491 15.3014C22.4393 15.3014 22.4296 15.3006 22.4198 15.3006C22.0241 15.0735 21.7951 14.7264 21.8739 14.4118C21.9505 14.113 22.2861 13.9243 22.7119 13.9009C23.1129 14.2156 23.3036 14.6434 23.1474 14.9581C23.0355 15.1837 22.7712 15.3014 22.4491 15.3014Z" fill="#F9F0E2"/>
<path d="M18.0676 23.8261C18.1036 23.6141 18.0706 23.4164 17.9564 23.2617C17.8183 23.0746 17.584 22.9825 17.3092 22.9825C17.2694 22.9825 17.2281 22.9848 17.1868 22.9885C17.192 22.9576 17.1988 22.9267 17.207 22.8957C17.373 22.9508 17.5615 22.9818 17.762 22.9818C18.3063 22.9818 18.7659 22.7531 18.9168 22.4385C19.046 22.5011 19.1759 22.5471 19.3035 22.5766C18.8996 22.7011 18.6202 22.9636 18.6202 23.2685C18.6202 23.3922 18.666 23.5092 18.7479 23.6125C18.5181 23.734 18.2831 23.8065 18.0676 23.8261Z" fill="#F6EBD9"/>
<path d="M18.748 23.6126C18.6661 23.5092 18.6203 23.3922 18.6203 23.2685C18.6203 22.9637 18.8996 22.7011 19.3036 22.5766C19.4238 22.6045 19.5409 22.6189 19.6513 22.6189C19.6701 22.6189 19.6888 22.6181 19.7069 22.6173C19.5867 22.901 19.3584 23.19 19.0453 23.4239C18.9484 23.4964 18.8486 23.559 18.748 23.6126Z" fill="#F9F0E2"/>
<path d="M17.762 22.9818C17.5615 22.9818 17.373 22.9508 17.2071 22.8957C17.2371 22.778 17.2882 22.6573 17.3573 22.5373C17.4436 22.4385 17.5172 22.3359 17.5773 22.2325C17.6779 22.1178 17.7958 22.0084 17.9294 21.9088C18.0083 21.85 18.0894 21.7979 18.1712 21.7511C18.2981 22.0062 18.5534 22.2551 18.8921 22.4264C18.9004 22.431 18.9086 22.4347 18.9169 22.4385C18.7659 22.7531 18.3064 22.9818 17.762 22.9818Z" fill="#F9F0E2"/>
<path d="M17.9452 23.8321C17.6704 23.8321 17.4369 23.74 17.298 23.5522C17.1846 23.3982 17.1508 23.2006 17.1868 22.9885C17.2281 22.9848 17.2694 22.9825 17.3092 22.9825C17.584 22.9825 17.8183 23.0746 17.9565 23.2617C18.0706 23.4164 18.1037 23.614 18.0676 23.8261C18.0263 23.8298 17.9858 23.8321 17.9452 23.8321Z" fill="#F9F0E2"/>
<path d="M17.3573 22.5373C17.4175 22.4337 17.4913 22.3308 17.5779 22.2317C17.5177 22.3354 17.4439 22.4382 17.3573 22.5373Z" fill="#FBF4E9"/>
<path d="M19.3037 22.5766C19.176 22.5471 19.0461 22.5011 18.917 22.4385C18.9508 22.3676 18.9688 22.2929 18.9688 22.2151C18.9688 21.9654 18.7818 21.7436 18.4912 21.6032C18.6782 21.5353 18.8621 21.5006 19.0311 21.5006C19.3052 21.5006 19.5387 21.5926 19.6769 21.7798C19.8195 21.9722 19.8368 22.231 19.7497 22.5026C19.5905 22.5087 19.4403 22.5351 19.3037 22.5766Z" fill="#F9F0E2"/>
<path d="M19.6513 22.6188C19.5409 22.6188 19.4237 22.6045 19.3036 22.5766C19.4403 22.5351 19.5904 22.5087 19.7496 22.5026C19.7376 22.5404 19.7234 22.5788 19.7068 22.6173C19.6888 22.6181 19.6701 22.6188 19.6513 22.6188Z" fill="#FBF4E9"/>
<path d="M18.9169 22.4385C18.9086 22.4347 18.9004 22.4309 18.8921 22.4264C18.5535 22.2551 18.2982 22.0061 18.1713 21.7511C18.2771 21.6915 18.3845 21.6417 18.4911 21.6032C18.7817 21.7436 18.9687 21.9654 18.9687 22.2151C18.9687 22.2929 18.9507 22.3676 18.9169 22.4385Z" fill="#FBF4E9"/>
<path d="M22.8583 26.848C22.5835 26.848 22.35 26.7559 22.2111 26.5688C22.0609 26.3651 22.0511 26.0867 22.1555 25.7984C22.3199 25.6694 22.4206 25.5057 22.4258 25.3268C22.5392 25.1835 22.6789 25.0469 22.8418 24.9254C22.9792 24.8236 23.1226 24.7398 23.2653 24.6757C23.405 24.8432 23.5979 24.9979 23.8307 25.1148C24.0275 25.2129 24.228 25.2733 24.4164 25.2967C24.1131 25.6513 23.9727 26.0542 24.0485 26.3704C24.02 26.3938 23.9899 26.4171 23.9599 26.4398C23.5972 26.7091 23.1962 26.848 22.8583 26.848Z" fill="#F6EBD9"/>
<path d="M22.1555 25.7984C22.2126 25.6407 22.3042 25.48 22.4258 25.3269C22.4206 25.5057 22.32 25.6694 22.1555 25.7984Z" fill="#F9F0E2"/>
<path d="M24.0485 26.3704C23.9727 26.0542 24.1131 25.6513 24.4164 25.2967C24.4757 25.3042 24.5343 25.308 24.5914 25.308C24.6319 25.308 24.671 25.3057 24.7093 25.302C24.6702 25.6536 24.433 26.0535 24.0485 26.3704Z" fill="#F9F0E2"/>
<path d="M24.4164 25.2967C24.2279 25.2733 24.0274 25.2129 23.8307 25.1148C23.5979 24.9979 23.4049 24.8432 23.2653 24.6757C23.4995 24.57 23.7338 24.5165 23.9433 24.5165C24.2181 24.5165 24.4509 24.6085 24.5891 24.7956C24.6402 24.8643 24.6747 24.9413 24.695 25.0243C24.5906 25.1095 24.4975 25.2016 24.4164 25.2967Z" fill="#F9F0E2"/>
<path d="M24.5919 25.308C24.5346 25.308 24.4759 25.3042 24.4164 25.2966C24.4977 25.2013 24.5911 25.109 24.6957 25.0236C24.7168 25.1106 24.7213 25.2044 24.7101 25.3019C24.6717 25.3057 24.6325 25.308 24.5919 25.308Z" fill="#FBF4E9"/>
<path d="M36.4773 21.7934C36.5636 21.4523 36.8189 21.0849 37.2004 20.8004C37.542 20.5461 37.9175 20.4081 38.2426 20.393C38.1698 20.7499 38.4604 21.2003 38.956 21.4825C38.9627 21.4923 38.9695 21.5029 38.977 21.5127C38.962 21.5482 38.9447 21.5844 38.9267 21.6198C38.8253 21.5376 38.7097 21.4621 38.5828 21.398C38.3237 21.2682 38.0572 21.2056 37.8214 21.2056C37.5 21.2056 37.2357 21.3226 37.1246 21.5474C37.0998 21.5972 37.084 21.6493 37.0758 21.7043C37.0472 21.7021 37.0179 21.7006 36.9879 21.7006C36.8279 21.7006 36.6545 21.7315 36.4773 21.7934Z" fill="#F6EBD9"/>
<path d="M37.7274 22.6309C37.7898 22.3864 37.7642 22.1555 37.6343 21.9797C37.5112 21.813 37.3122 21.7217 37.0757 21.7043C37.0839 21.6492 37.0997 21.5972 37.1245 21.5474C37.2356 21.3225 37.4999 21.2056 37.8213 21.2056C38.0571 21.2056 38.3236 21.2682 38.5827 21.398C38.7096 21.4621 38.8252 21.5376 38.9266 21.6198C38.7982 21.8666 38.5902 22.1118 38.3184 22.3147C38.1277 22.4574 37.9257 22.563 37.7274 22.6309Z" fill="#F9F0E2"/>
<path d="M38.956 21.4825C38.4604 21.2003 38.1698 20.7498 38.2426 20.3929C38.2629 20.3922 38.2824 20.3914 38.3019 20.3914C38.5768 20.3914 38.811 20.4835 38.9492 20.6714C38.9777 20.7106 39.0018 20.7521 39.0205 20.7966C38.9177 20.909 38.8584 21.0403 38.8584 21.1799C38.8584 21.2878 38.8929 21.3897 38.956 21.4825Z" fill="#F9F0E2"/>
<path d="M36.3302 15.8605C36.3189 15.8544 36.3077 15.8484 36.2956 15.8424C36.0366 15.7133 35.7708 15.6507 35.5357 15.6507C35.4021 15.6507 35.2782 15.6711 35.1716 15.7103C35.1633 15.7013 35.1558 15.6915 35.1483 15.6816C35.1017 15.6183 35.0679 15.5473 35.0477 15.4711C35.0957 15.4409 35.143 15.4085 35.1903 15.373C35.746 14.958 36.0343 14.3665 35.9209 13.9402C36.2438 13.7349 36.5855 13.63 36.8798 13.63C37.1547 13.63 37.3882 13.7214 37.5279 13.9092C37.6863 14.1258 37.6878 14.4253 37.5624 14.7332C37.5286 14.7136 37.4941 14.6947 37.458 14.6766C37.1997 14.5468 36.9339 14.4842 36.6981 14.4842C36.3767 14.4842 36.1124 14.6011 36.0005 14.8267C35.8519 15.1271 36.0186 15.53 36.3828 15.8408C36.3655 15.8476 36.3474 15.8544 36.3302 15.8605Z" fill="#F6EBD9"/>
<path d="M35.0477 15.4711C34.9328 15.0456 35.2219 14.4533 35.779 14.0383C35.8256 14.0036 35.8729 13.9711 35.9209 13.9402C36.0343 14.3665 35.746 14.9581 35.1903 15.3731C35.143 15.4085 35.0957 15.441 35.0477 15.4711Z" fill="#F9F0E2"/>
<path d="M36.3827 15.8409C36.0185 15.53 35.8518 15.1271 36.0005 14.8268C36.1124 14.6012 36.3767 14.4842 36.6981 14.4842C36.9339 14.4842 37.1997 14.5468 37.458 14.6766C37.494 14.6947 37.5286 14.7136 37.5623 14.7332C37.4437 15.0214 37.2139 15.3157 36.8963 15.5534C36.7296 15.6771 36.5554 15.7729 36.3827 15.8409Z" fill="#F9F0E2"/>
<path d="M35.7954 15.9608C35.5348 15.9608 35.3118 15.8786 35.1714 15.7103C35.278 15.6711 35.4019 15.6507 35.5356 15.6507C35.7706 15.6507 36.0364 15.7133 36.2955 15.8423C36.3075 15.8484 36.3187 15.8544 36.33 15.8605C36.1445 15.9276 35.9621 15.9608 35.7954 15.9608Z" fill="#F9F0E2"/>
<path d="M38.769 24.4358C38.8253 24.3468 38.8561 24.2502 38.8561 24.1483C38.8561 23.7243 38.3177 23.3817 37.6517 23.3817C37.6171 23.3817 37.5834 23.3824 37.5496 23.384C37.6359 23.1968 37.7688 23.009 37.9415 22.8377C38.1818 22.9478 38.4251 23.0014 38.6429 23.0014C38.9635 23.0014 39.2278 22.8845 39.3397 22.6589C39.405 22.5261 39.4095 22.3736 39.3622 22.2175C39.6063 22.2325 39.812 22.3238 39.9389 22.4951C40.2468 22.9139 39.9644 23.648 39.3074 24.1385C39.1324 24.2683 38.9492 24.3679 38.769 24.4358Z" fill="#F6EBD9"/>
<path d="M38.6428 23.0014C38.425 23.0014 38.1818 22.9478 37.9415 22.8376C38.0173 22.7629 38.0999 22.6913 38.19 22.6241C38.5527 22.3548 38.9529 22.2159 39.2908 22.2159C39.3149 22.2159 39.3389 22.2159 39.3622 22.2174C39.4095 22.3736 39.405 22.526 39.3396 22.6588C39.2277 22.8844 38.9634 23.0014 38.6428 23.0014Z" fill="#F9F0E2"/>
<path d="M40.578 17.5755C40.5757 17.5755 40.5742 17.5755 40.5727 17.5755C40.7995 17.5347 40.9797 17.4253 41.0661 17.2495C41.2455 16.8874 40.9647 16.3758 40.4346 16.0581C40.4473 16.0589 40.4601 16.0589 40.4729 16.0589C40.7942 16.0589 41.0593 15.9412 41.1704 15.7156C41.2298 15.5956 41.2395 15.4598 41.2057 15.3194C41.3642 15.2696 41.5196 15.244 41.663 15.244C41.9378 15.244 42.1714 15.336 42.3095 15.5232C42.6189 15.9419 42.3358 16.6776 41.6795 17.1665C41.3161 17.4367 40.9159 17.5755 40.578 17.5755Z" fill="#F6EBD9"/>
<path d="M40.4727 16.0589C40.46 16.0589 40.4472 16.0589 40.4344 16.0581C40.3939 16.034 40.3518 16.0106 40.3083 15.9887C40.2828 15.9766 40.2572 15.9638 40.2317 15.9525C40.3278 15.8469 40.4382 15.7458 40.5621 15.653C40.7708 15.4983 40.9916 15.3859 41.2056 15.3195C41.2394 15.4598 41.2296 15.5956 41.1703 15.7156C41.0592 15.9412 40.7941 16.0589 40.4727 16.0589Z" fill="#F9F0E2"/>
<path d="M40.5726 17.5755C40.3 17.574 40.0688 17.4827 39.9306 17.2971C39.6941 16.9749 39.806 16.4663 40.1679 16.0265C40.2595 16.0453 40.3489 16.0559 40.4345 16.0582C40.9646 16.3758 41.2454 16.8874 41.066 17.2496C40.9796 17.4254 40.7994 17.5348 40.5726 17.5755Z" fill="#F9F0E2"/>
<path d="M40.4351 16.0582C40.3493 16.0559 40.2597 16.0453 40.1678 16.0264C40.1889 16.0014 40.21 15.9764 40.2318 15.9522C40.2574 15.9636 40.283 15.9764 40.3086 15.9885C40.3523 16.0105 40.3945 16.0339 40.4351 16.0582Z" fill="#FBF4E9"/>
<path d="M36.8355 23.5839C36.6981 23.4277 36.5141 23.2851 36.2956 23.1749C36.0365 23.0451 35.77 22.9818 35.5342 22.9818C35.4058 22.9818 35.2856 23.0006 35.1813 23.0384C35.2819 22.7162 35.5289 22.3766 35.8871 22.1095C36.0786 21.9669 36.2798 21.8613 36.4773 21.7934C36.4157 22.0378 36.4413 22.2687 36.5712 22.4445C36.7086 22.6317 36.9421 22.7237 37.2169 22.7237C37.3483 22.7237 37.4902 22.7026 37.6352 22.6603C37.6577 22.6769 37.6817 22.6928 37.7057 22.7086C37.6269 22.9516 37.4647 23.2051 37.2342 23.4285C37.0855 23.4632 36.9504 23.5167 36.8355 23.5839Z" fill="#F6EBD9"/>
<path d="M35.9036 24.0321C35.6288 24.0321 35.3953 23.9408 35.2563 23.7529C35.1159 23.562 35.0979 23.3062 35.1812 23.0384C35.2856 23.0006 35.4058 22.9818 35.5342 22.9818C35.7699 22.9818 36.0365 23.0451 36.2956 23.1749C36.5141 23.2851 36.6981 23.4277 36.8355 23.5839C36.6868 23.6706 36.5719 23.7808 36.5066 23.9053C36.2978 23.9898 36.0913 24.0321 35.9036 24.0321Z" fill="#F9F0E2"/>
<path d="M37.7059 22.7086C37.6819 22.6927 37.6578 22.6768 37.6352 22.6602C37.6661 22.6519 37.6969 22.642 37.7278 22.6307C37.7217 22.6564 37.7142 22.6821 37.7059 22.7086Z" fill="#F9F0E2"/>
<path d="M37.2168 22.7237C36.942 22.7237 36.7084 22.6316 36.571 22.4445C36.4411 22.2687 36.4156 22.0378 36.4772 21.7934C36.6544 21.7315 36.8278 21.7006 36.9878 21.7006C37.0178 21.7006 37.0471 21.7021 37.0756 21.7043C37.0306 22.0152 37.2506 22.3895 37.635 22.6603C37.4901 22.7026 37.3482 22.7237 37.2168 22.7237Z" fill="#F9F0E2"/>
<path d="M37.635 22.6603C37.2506 22.3894 37.0306 22.0152 37.0756 21.7043C37.3122 21.7217 37.5111 21.813 37.6343 21.9797C37.7642 22.1555 37.7897 22.3864 37.7274 22.6309C37.6966 22.6422 37.6658 22.652 37.635 22.6603Z" fill="#FBF4E9"/>
<path d="M32.4081 25.5751C32.3142 25.5751 32.2256 25.5645 32.143 25.5427C32.1791 25.4702 32.1978 25.3933 32.1978 25.3133C32.1978 25.2295 32.1768 25.1496 32.1378 25.0741C32.2136 25.1277 32.2962 25.1775 32.3833 25.2212C32.6244 25.342 32.8714 25.4053 33.0937 25.4129C32.8571 25.5208 32.6206 25.5751 32.4081 25.5751ZM33.8949 24.8032C33.8783 24.4539 33.566 24.0532 33.0846 23.811C32.8646 23.7001 32.6394 23.6382 32.4321 23.6224C32.7835 23.3726 33.1673 23.2436 33.4924 23.2436C33.768 23.2436 34.0015 23.3356 34.1404 23.5235C34.3799 23.8472 34.2635 24.3611 33.8949 24.8032ZM31.7788 24.7323C31.7413 24.7119 31.7022 24.6923 31.6609 24.6749C31.6677 24.6463 31.6752 24.6169 31.6842 24.5874C31.7113 24.6365 31.7428 24.6848 31.7788 24.7323Z" fill="#F6EBD9"/>
<path d="M33.0938 25.4129C32.8715 25.4053 32.6245 25.3419 32.3835 25.2212C32.2964 25.1774 32.2138 25.1276 32.1379 25.0741C32.0688 24.9398 31.9434 24.8221 31.779 24.7323C31.743 24.6847 31.7114 24.6364 31.6844 24.5874C31.7835 24.2637 32.0313 23.9211 32.3925 23.6518C32.4052 23.642 32.4188 23.6322 32.4323 23.6223C32.6395 23.6382 32.8648 23.7001 33.0848 23.811C33.5661 24.0532 33.8785 24.4538 33.895 24.8032C33.865 24.8394 33.8334 24.8749 33.7996 24.9103C33.5038 24.9232 33.2627 25.0394 33.1584 25.2506C33.1336 25.2997 33.1178 25.3517 33.1096 25.4061C33.1043 25.4083 33.0991 25.4106 33.0938 25.4129Z" fill="#F9F0E2"/>
<path d="M33.1094 25.4061C33.1177 25.3517 33.1335 25.2997 33.1582 25.2506C33.2626 25.0394 33.5036 24.9232 33.7995 24.9103C33.7139 25.0001 33.617 25.0869 33.5097 25.1661C33.3798 25.2635 33.2446 25.3434 33.1094 25.4061Z" fill="#FBF4E9"/>
<path d="M39.4732 19.3306C39.4244 19.3306 39.3756 19.3283 39.3276 19.3253C39.1961 19.0801 38.9468 18.8432 38.6217 18.6794C38.5038 18.6206 38.3844 18.5753 38.2673 18.5436C38.2695 18.4998 38.277 18.4568 38.2898 18.4153C38.8665 18.4085 39.3441 18.1445 39.4507 17.7959C39.4582 17.7959 39.4657 17.7959 39.4732 17.7959C39.6775 17.7959 39.8697 17.8283 40.0387 17.8857C40.0296 17.9 40.0214 17.9151 40.0131 17.9309C39.8554 18.2493 40.0522 18.684 40.4644 19.0009C40.2466 19.2001 39.8832 19.3306 39.4732 19.3306Z" fill="#F6EBD9"/>
<path d="M39.3276 19.3253C38.7298 19.2792 38.2673 18.9563 38.2673 18.5632C38.2673 18.5564 38.2673 18.5504 38.2673 18.5436C38.3844 18.5753 38.5038 18.6205 38.6217 18.6794C38.9468 18.8431 39.1962 19.08 39.3276 19.3253Z" fill="#F9F0E2"/>
<path d="M40.4644 19.0009C40.0522 18.684 39.8554 18.2493 40.0131 17.9309C40.0214 17.9151 40.0296 17.9 40.0387 17.8857C40.4194 18.0139 40.6792 18.269 40.6792 18.5632C40.6792 18.7262 40.5996 18.8764 40.4644 19.0009Z" fill="#F9F0E2"/>
<path d="M40.0652 21.9473C39.5861 21.9473 39.1716 21.77 38.9771 21.5127C38.9794 21.5074 38.9816 21.5029 38.9831 21.4976C39.0026 21.5089 39.0229 21.5187 39.0432 21.5293C39.3015 21.6583 39.5666 21.7217 39.8024 21.7217C40.1245 21.7217 40.3895 21.604 40.5022 21.3791C40.587 21.2071 40.5675 21.0011 40.4676 20.7981C40.5585 20.8683 40.6606 20.9324 40.771 20.9883C40.9377 21.072 41.1066 21.1271 41.2696 21.1565C41.2696 21.1641 41.2696 21.1724 41.2696 21.1799C41.2696 21.6047 40.7297 21.9473 40.0652 21.9473Z" fill="#F6EBD9"/>
<path d="M41.2695 21.1565C41.1066 21.1271 40.9376 21.072 40.771 20.9883C40.6606 20.9324 40.5584 20.8683 40.4676 20.7981C40.4023 20.6661 40.3024 20.5355 40.1747 20.4163C40.7762 20.451 41.2508 20.7672 41.2695 21.1565Z" fill="#F9F0E2"/>
<path d="M39.8022 21.7217C39.5664 21.7217 39.3014 21.6583 39.043 21.5293C39.0228 21.5187 39.0025 21.5089 38.983 21.4976C39.0873 21.2448 39.1054 20.9966 39.0205 20.7966C39.2285 20.5672 39.6182 20.4133 40.065 20.4133C40.0785 20.4133 40.0928 20.4133 40.1063 20.4133C40.1934 20.5499 40.3158 20.6819 40.4675 20.7981C40.5674 21.0011 40.5869 21.2071 40.502 21.3791C40.3894 21.604 40.1243 21.7217 39.8022 21.7217Z" fill="#F9F0E2"/>
<path d="M40.4675 20.7981C40.3158 20.6819 40.1934 20.5499 40.1063 20.4133C40.1295 20.4141 40.1521 20.4148 40.1746 20.4163C40.3023 20.5355 40.4021 20.6661 40.4675 20.7981Z" fill="#FBF4E9"/>
<path d="M38.977 21.5127C38.9695 21.5028 38.9627 21.4922 38.9559 21.4824C38.965 21.4877 38.974 21.493 38.983 21.4975C38.9815 21.5028 38.9792 21.5074 38.977 21.5127Z" fill="#F9F0E2"/>
<path d="M38.983 21.4976C38.974 21.493 38.965 21.4878 38.956 21.4825C38.8929 21.3897 38.8584 21.2878 38.8584 21.1799C38.8584 21.0403 38.9177 20.909 39.0206 20.7966C39.1054 20.9965 39.0874 21.2448 38.983 21.4976Z" fill="#FBF4E9"/>
<path d="M36.8812 26.2979C37.0081 26.2383 37.1328 26.1757 37.2559 26.1101C37.153 26.1878 37.0254 26.2519 36.8812 26.2979Z" fill="#6B655B"/>
<path d="M36.3368 26.3802C35.9741 26.3802 35.649 26.2791 35.4275 26.1176C35.4252 25.9161 35.3231 25.6951 35.1444 25.4974C35.233 25.1284 35.7338 24.847 36.3368 24.847C37.0029 24.847 37.5427 25.1895 37.5427 25.6136C37.5427 25.803 37.4354 25.9765 37.2559 26.1101C37.1328 26.1757 37.0081 26.2383 36.8812 26.2979C36.7183 26.3508 36.5328 26.3802 36.3368 26.3802Z" fill="#F6EBD9"/>
<path d="M35.4276 26.1176C35.2429 25.9825 35.131 25.8067 35.131 25.6136C35.131 25.5736 35.1355 25.5351 35.1445 25.4974C35.3232 25.6951 35.4253 25.9161 35.4276 26.1176Z" fill="#F9F0E2"/>
<path d="M26.2216 24.601C26.1299 24.5686 26.0278 24.5504 25.9189 24.5474C25.9189 24.5467 25.9189 24.5467 25.9189 24.5467C25.9189 24.1219 26.4588 23.7793 27.1249 23.7793C27.6685 23.7793 28.1288 24.0079 28.279 24.3233C28.2767 24.3656 28.2782 24.4086 28.2842 24.4524C28.0642 24.2675 27.7151 24.1483 27.3223 24.1483C26.832 24.1483 26.41 24.3339 26.2216 24.601Z" fill="#F6EBD9"/>
<path d="M27.1248 25.3133C26.9589 25.3133 26.8004 25.2921 26.6563 25.2537C26.6608 25.0937 26.621 24.9466 26.5316 24.8258C26.455 24.7217 26.3484 24.647 26.2215 24.601C26.41 24.3339 26.832 24.1483 27.3223 24.1483C27.715 24.1483 28.0642 24.2675 28.2842 24.4524C28.2917 24.5059 28.306 24.561 28.3263 24.6153C28.2714 25.0084 27.7533 25.3133 27.1248 25.3133Z" fill="#F9F0E2"/>
<path d="M26.1194 24.9715C25.9925 24.85 25.9189 24.7044 25.9189 24.5474C26.0278 24.5504 26.1299 24.5685 26.2215 24.601C26.154 24.6968 26.1164 24.8032 26.1164 24.9156C26.1164 24.9337 26.1172 24.9526 26.1194 24.9715Z" fill="#F9F0E2"/>
<path d="M26.6563 25.2537C26.437 25.1948 26.25 25.096 26.1194 24.9715C26.1171 24.9526 26.1164 24.9337 26.1164 24.9156C26.1164 24.8032 26.1539 24.6968 26.2215 24.601C26.3484 24.647 26.455 24.7217 26.5316 24.8259C26.621 24.9466 26.6608 25.0937 26.6563 25.2537Z" fill="#FBF4E9"/>
<path d="M28.328 24.4916C28.3144 24.478 28.2993 24.4651 28.2843 24.4523C28.2783 24.4084 28.2768 24.3653 28.279 24.3229C28.3046 24.3774 28.3219 24.4333 28.328 24.4916Z" fill="#F9F0E2"/>
<path d="M28.3264 24.6153C28.3061 24.5608 28.2918 24.5056 28.2843 24.4519C28.2993 24.4648 28.3144 24.4776 28.3279 24.4912C28.3302 24.5094 28.331 24.5275 28.331 24.5465C28.331 24.5692 28.3294 24.5926 28.3264 24.6153Z" fill="#FBF4E9"/>
<path d="M26.769 26.848C26.3733 26.848 26.0219 26.7273 25.8019 26.5394C25.8349 26.5175 25.868 26.4941 25.901 26.47C26.2614 26.2006 26.51 25.8573 26.6091 25.5336C26.8088 25.6271 27.0551 25.6822 27.3224 25.6822C27.4726 25.6822 27.6153 25.6649 27.7482 25.6332C27.7497 25.6347 27.7519 25.6362 27.7542 25.6377C27.7084 25.8377 27.7775 26.0663 27.9337 26.2798C27.7963 26.6073 27.3262 26.848 26.769 26.848Z" fill="#F6EBD9"/>
<path d="M27.3224 25.6823C27.0551 25.6823 26.8088 25.6272 26.6091 25.5336C26.6316 25.4597 26.6459 25.3872 26.6526 25.3171C26.6909 25.3148 26.73 25.3133 26.769 25.3133C27.1715 25.3133 27.5289 25.4393 27.7482 25.6332C27.6153 25.6649 27.4726 25.6823 27.3224 25.6823Z" fill="#F9F0E2"/>
<path d="M25.8019 26.5394C25.6517 26.4119 25.5624 26.2526 25.5624 26.0806C25.5624 25.7524 25.8868 25.4725 26.3426 25.363C26.4169 25.4279 26.507 25.486 26.6091 25.5336C26.51 25.8573 26.2615 26.2006 25.901 26.47C25.868 26.4941 25.8349 26.5175 25.8019 26.5394Z" fill="#F9F0E2"/>
<path d="M26.6097 25.5336C26.5074 25.4859 26.4171 25.4277 26.3425 25.3626C26.4411 25.3392 26.545 25.3233 26.6534 25.3165C26.6466 25.3868 26.6323 25.4594 26.6097 25.5336Z" fill="#FBF4E9"/>
<path d="M27.9335 26.2798C27.7773 26.0663 27.7082 25.8377 27.754 25.6377C27.893 25.763 27.9748 25.9161 27.9748 26.0806C27.9748 26.1493 27.9606 26.2164 27.9335 26.2798Z" fill="#F9F0E2"/>
<path d="M33.8596 27.1468C33.6351 27.1468 33.4241 27.1076 33.2438 27.0397C33.373 27.0397 33.5014 27.0404 33.6283 27.0412C33.6411 27.0412 33.6546 27.0412 33.6673 27.0412C33.9887 27.0412 34.3056 27.0193 34.6172 26.977C34.41 27.0834 34.1464 27.1468 33.8596 27.1468Z" fill="#6B655B"/>
<path d="M33.6675 27.0412C33.6547 27.0412 33.6412 27.0412 33.6284 27.0412C33.5015 27.0404 33.3731 27.0397 33.244 27.0397C32.8918 26.9061 32.6553 26.6609 32.6553 26.3802C32.6553 26.1229 32.8535 25.8958 33.1576 25.7562C33.268 26.0384 33.5406 26.3236 33.9153 26.5122C34.1743 26.6412 34.4394 26.7039 34.6752 26.7039C34.7856 26.7039 34.8892 26.6903 34.9823 26.6631C34.9049 26.7869 34.7781 26.8948 34.6174 26.977C34.3057 27.0193 33.9889 27.0412 33.6675 27.0412Z" fill="#F6EBD9"/>
<path d="M34.6752 26.7039C34.4394 26.7039 34.1743 26.6413 33.9153 26.5122C33.5406 26.3236 33.268 26.0384 33.1576 25.7562C33.3558 25.6664 33.5976 25.6136 33.8597 25.6136C34.5257 25.6136 35.0664 25.9554 35.0664 26.3802C35.0664 26.4805 35.0363 26.5756 34.9823 26.6631C34.8892 26.6903 34.7856 26.7039 34.6752 26.7039Z" fill="#F9F0E2"/>
<path d="M37.6516 24.9156C37.3152 24.9156 37.0111 24.8281 36.7918 24.6862C36.9074 24.6289 36.9983 24.5444 37.0524 24.435C37.162 24.2154 37.1012 23.9393 36.9172 23.6857C36.9465 23.6661 36.9758 23.6458 37.0043 23.6246C37.0869 23.5628 37.1642 23.4971 37.2341 23.4284C37.3339 23.4051 37.4398 23.39 37.5495 23.3839C37.3985 23.7121 37.3895 24.0373 37.56 24.2675C37.6974 24.4553 37.9309 24.5467 38.2058 24.5467C38.3815 24.5467 38.5737 24.5097 38.7689 24.4357C38.5902 24.7172 38.1577 24.9156 37.6516 24.9156Z" fill="#F6EBD9"/>
<path d="M36.792 24.6863C36.578 24.5482 36.4451 24.358 36.4451 24.1483C36.4451 24.063 36.4668 23.9815 36.5066 23.9053C36.6441 23.8502 36.783 23.777 36.9174 23.6857C37.1013 23.9393 37.1622 24.2154 37.0525 24.435C36.9985 24.5444 36.9076 24.6289 36.792 24.6863Z" fill="#F9F0E2"/>
<path d="M38.2057 24.5467C37.9309 24.5467 37.6973 24.4553 37.5599 24.2675C37.3895 24.0373 37.3985 23.7121 37.5494 23.3839C37.5832 23.3824 37.617 23.3817 37.6515 23.3817C38.3176 23.3817 38.856 23.7242 38.856 24.1483C38.856 24.2501 38.8252 24.3467 38.7689 24.4357C38.5736 24.5097 38.3814 24.5467 38.2057 24.5467Z" fill="#F9F0E2"/>
<path d="M36.9174 23.6857C36.8926 23.651 36.8649 23.6171 36.8356 23.5839C36.9505 23.5167 37.0856 23.4632 37.2343 23.4285C37.1645 23.4971 37.0871 23.5628 37.0045 23.6246C36.976 23.6458 36.9467 23.6661 36.9174 23.6857Z" fill="#F9F0E2"/>
<path d="M36.5066 23.9053C36.5719 23.7808 36.6868 23.6706 36.8355 23.5839C36.8648 23.6171 36.8925 23.651 36.9173 23.6857C36.7829 23.777 36.644 23.8502 36.5066 23.9053Z" fill="#FBF4E9"/>
<path d="M28.3309 15.7065C28.1297 15.7065 27.9397 15.6756 27.773 15.6198C28.0756 15.6107 28.3227 15.4938 28.4301 15.2765C28.4811 15.1754 28.4946 15.0614 28.4774 14.9437C28.5104 14.8735 28.5284 14.7996 28.5284 14.7226C28.5284 14.6525 28.5134 14.5838 28.4856 14.5197C28.6681 14.4646 28.8265 14.3823 28.9452 14.2797C29.0518 14.3197 29.1479 14.3703 29.2305 14.4291C29.1705 14.4774 29.1224 14.5363 29.0878 14.6049C28.97 14.8434 29.051 15.1474 29.2726 15.4183C29.051 15.5941 28.7117 15.7065 28.3309 15.7065Z" fill="#F6EBD9"/>
<path d="M28.4856 14.5196C28.4285 14.3883 28.3197 14.2714 28.1725 14.1786C28.2243 14.1748 28.2776 14.1726 28.3309 14.1726C28.5554 14.1726 28.7657 14.211 28.9451 14.2797C28.8265 14.3823 28.6681 14.4645 28.4856 14.5196Z" fill="#F9F0E2"/>
<path d="M28.4773 14.9437C28.4586 14.8177 28.403 14.6864 28.3174 14.5597C28.3752 14.5491 28.4315 14.5355 28.4856 14.5197C28.5134 14.5838 28.5284 14.6525 28.5284 14.7226C28.5284 14.7996 28.5104 14.8735 28.4773 14.9437Z" fill="#F9F0E2"/>
<path d="M28.3172 14.5596C28.2316 14.4344 28.1167 14.3129 27.9763 14.2058C28.0394 14.1937 28.1055 14.1846 28.1723 14.1786C28.3195 14.2714 28.4283 14.3884 28.4854 14.5196C28.4313 14.5355 28.375 14.5491 28.3172 14.5596Z" fill="#FBF4E9"/>
<path d="M27.7729 15.6198C27.6648 15.5835 27.5656 15.5375 27.48 15.4832C27.9546 15.444 28.3428 15.2289 28.4772 14.9437C28.4945 15.0614 28.481 15.1753 28.4299 15.2764C28.3225 15.4938 28.0755 15.6107 27.7729 15.6198Z" fill="#F9F0E2"/>
<path d="M27.4801 15.4832C27.2608 15.3444 27.1249 15.152 27.1249 14.9392C27.1249 14.7694 27.212 14.6117 27.36 14.4842C27.5402 14.5521 27.7497 14.5913 27.975 14.5913C28.0936 14.5913 28.2085 14.58 28.3173 14.5597C28.4029 14.6864 28.4585 14.8177 28.4773 14.9437C28.3429 15.2289 27.9547 15.444 27.4801 15.4832Z" fill="#FBF4E9"/>
<path d="M27.9749 14.5913C27.7496 14.5913 27.5401 14.5521 27.3599 14.4842C27.5115 14.3536 27.7263 14.2548 27.9764 14.2058C28.1168 14.3129 28.2317 14.4344 28.3173 14.5596C28.2084 14.58 28.0935 14.5913 27.9749 14.5913Z" fill="#FCF7EE"/>
<path d="M29.2724 15.4183C29.0508 15.1474 28.9698 14.8433 29.0876 14.6049C29.1222 14.5363 29.1703 14.4774 29.2303 14.4291C29.4203 14.5649 29.5359 14.7437 29.5359 14.9392C29.5359 15.121 29.4376 15.287 29.2724 15.4183Z" fill="#F9F0E2"/>
<path d="M30.9926 26.0806C30.473 26.0806 30.03 25.8724 29.8603 25.5789C30.1764 25.5758 30.4362 25.4589 30.5474 25.2355C30.6382 25.053 30.6104 24.8304 30.4925 24.6153C30.645 24.5708 30.8147 24.5467 30.9926 24.5467C31.2397 24.5467 31.4695 24.5934 31.6609 24.6749C31.6084 24.9088 31.6377 25.1277 31.7616 25.2959C31.8532 25.4197 31.9853 25.5012 32.143 25.5427C31.9898 25.855 31.5325 26.0806 30.9926 26.0806Z" fill="#F6EBD9"/>
<path d="M29.8604 25.5789C29.8123 25.4959 29.7868 25.4068 29.7868 25.3133C29.7868 25.0031 30.0759 24.736 30.4926 24.6153C30.6105 24.8304 30.6383 25.0529 30.5475 25.2355C30.4363 25.4589 30.1765 25.5758 29.8604 25.5789Z" fill="#F9F0E2"/>
<path d="M32.143 25.5426C31.9854 25.5011 31.8532 25.4197 31.7616 25.2959C31.6377 25.1276 31.6084 24.9088 31.661 24.6749C31.7023 24.6923 31.7413 24.7119 31.7788 24.7323C31.872 24.8545 31.9936 24.9715 32.1378 25.0741C32.1768 25.1495 32.1978 25.2295 32.1978 25.3133C32.1978 25.3932 32.1791 25.4702 32.143 25.5426Z" fill="#F9F0E2"/>
<path d="M32.1378 25.0741C31.9936 24.9715 31.8719 24.8545 31.7788 24.7323C31.9433 24.8221 32.0687 24.9398 32.1378 25.0741Z" fill="#FBF4E9"/>
<path d="M37.4234 17.033C37.3085 17.0194 37.1996 16.9945 37.099 16.9613C37.1538 16.6459 36.93 16.2626 36.5366 15.9864C36.5411 15.9796 36.5448 15.9736 36.5501 15.9668C36.6147 16.0106 36.6837 16.0513 36.7566 16.0883C37.0156 16.2173 37.2807 16.28 37.5165 16.28C37.8379 16.28 38.1029 16.1623 38.2156 15.9366C38.2636 15.8393 38.2786 15.7314 38.2644 15.619C38.5662 15.7329 38.7832 15.9283 38.8411 16.1577C38.7945 16.2618 38.7855 16.3773 38.8073 16.4965C38.7352 16.6527 38.588 16.7878 38.392 16.8851C38.3507 16.8828 38.3094 16.8813 38.2674 16.8813C38.0008 16.8813 37.7545 16.9364 37.5555 17.0292C37.551 17.0292 37.5473 17.0292 37.5428 17.0292C37.503 17.0292 37.4624 17.0307 37.4234 17.033Z" fill="#F6EBD9"/>
<path d="M37.5274 17.0428C37.4927 17.0405 37.4573 17.0375 37.4235 17.033C37.4626 17.0307 37.5033 17.0292 37.5432 17.0292C37.5477 17.0292 37.5514 17.0292 37.556 17.0292C37.5462 17.0337 37.5371 17.0383 37.5274 17.0428Z" fill="#F9F0E2"/>
<path d="M37.5166 16.28C37.2808 16.28 37.0157 16.2174 36.7567 16.0883C36.6838 16.0514 36.6147 16.0106 36.5502 15.9669C36.7379 15.699 37.1614 15.5126 37.6517 15.5126C37.8755 15.5126 38.085 15.5511 38.2645 15.619C38.2787 15.7314 38.2637 15.8393 38.2157 15.9367C38.103 16.1623 37.838 16.28 37.5166 16.28Z" fill="#F9F0E2"/>
<path d="M37.0991 16.9613C36.7109 16.8346 36.4451 16.5765 36.4451 16.28C36.4451 16.1759 36.4774 16.077 36.5367 15.9865C36.9301 16.2626 37.1539 16.646 37.0991 16.9613Z" fill="#F9F0E2"/>
<path d="M38.8073 16.4965C38.7854 16.377 38.7945 16.2613 38.8411 16.1569C38.8509 16.197 38.8562 16.2378 38.8562 16.2794C38.8562 16.3543 38.8389 16.4277 38.8073 16.4965Z" fill="#F9F0E2"/>
<path d="M38.2674 18.4153C38.2629 18.4153 38.2584 18.4153 38.2546 18.4153C38.2689 18.4093 38.2824 18.4025 38.2959 18.395C38.2937 18.4017 38.2914 18.4085 38.2899 18.4153C38.2824 18.4153 38.2749 18.4153 38.2674 18.4153ZM38.7202 17.9634C38.7389 17.9098 38.7495 17.854 38.7495 17.7959C38.7495 17.4224 38.3275 17.1107 37.7711 17.0428C38.0038 17.0285 38.2171 16.9719 38.392 16.8851C38.9995 16.9251 39.4733 17.2511 39.4733 17.6487C39.4733 17.6993 39.4658 17.7483 39.4508 17.7959C39.1745 17.7996 38.9214 17.8615 38.7202 17.9634Z" fill="#F6EBD9"/>
<path d="M38.2546 18.4153C37.5953 18.4108 37.0621 18.069 37.0621 17.6487C37.0621 17.402 37.2446 17.1832 37.527 17.0428C37.5682 17.0458 37.6095 17.0466 37.6516 17.0466C37.6914 17.0466 37.7319 17.0458 37.771 17.0428C38.3274 17.1107 38.7494 17.4224 38.7494 17.7959C38.7494 17.854 38.7389 17.9098 38.7201 17.9634C38.5099 18.0705 38.3567 18.2214 38.2959 18.395C38.2823 18.4025 38.2688 18.4093 38.2546 18.4153Z" fill="#F9F0E2"/>
<path d="M38.2899 18.4153C38.2914 18.4085 38.2937 18.4017 38.2959 18.395C38.5069 18.2878 38.6594 18.1369 38.7202 17.9634C38.9214 17.8615 39.1745 17.7996 39.4508 17.7958C39.3442 18.1444 38.8666 18.4085 38.2899 18.4153Z" fill="#F9F0E2"/>
<path d="M38.296 18.395C38.3568 18.2214 38.5099 18.0705 38.7202 17.9634C38.6594 18.1369 38.5069 18.2878 38.296 18.395Z" fill="#FBF4E9"/>
<path d="M37.7711 17.0428C37.7013 17.0345 37.6292 17.03 37.5556 17.0292C37.7546 16.9364 38.0009 16.8814 38.2674 16.8814C38.3095 16.8814 38.3508 16.8829 38.3921 16.8851C38.2171 16.9719 38.0039 17.0285 37.7711 17.0428Z" fill="#F9F0E2"/>
<path d="M37.6519 17.0466C37.6097 17.0466 37.5683 17.0458 37.5269 17.0428C37.5367 17.0383 37.5457 17.0337 37.5555 17.0292C37.6293 17.03 37.7016 17.0345 37.7716 17.0428C37.7324 17.0458 37.6918 17.0466 37.6519 17.0466Z" fill="#FBF4E9"/>
<defs>
<filter id="filter0_d_2_4319" x="0" y="0" width="58" height="58" filterUnits="userSpaceOnUse" color-interpolation-filters="sRGB">
<feFlood flood-opacity="0" result="BackgroundImageFix"/>
<feColorMatrix in="SourceAlpha" type="matrix" values="0 0 0 0 0 0 0 0 0 0 0 0 0 0 0 0 0 0 127 0" result="hardAlpha"/>
<feOffset/>
<feGaussianBlur stdDeviation="3.5"/>
<feComposite in2="hardAlpha" operator="out"/>
<feColorMatrix type="matrix" values="0 0 0 0 0 0 0 0 0 0 0 0 0 0 0 0 0 0 0.2 0"/>
<feBlend mode="normal" in2="BackgroundImageFix" result="effect1_dropShadow_2_4319"/>
<feBlend mode="normal" in="SourceGraphic" in2="effect1_dropShadow_2_4319" result="shape"/>
</filter>
</defs>
</svg>
