<svg width="154" height="142" viewBox="0 0 154 142" fill="none" xmlns="http://www.w3.org/2000/svg">
<path d="M0.777867 134.009C0.825147 136.881 0.893441 139.589 0.976618 141.979L1.02915 141.981C1.33296 141.981 1.63065 141.967 1.92834 141.955C2.01064 139.569 2.07893 136.873 2.12534 134.009C2.14547 132.367 2.19188 133.383 2.19188 131.66C2.19888 129.938 2.2085 128.191 2.21638 126.439C2.20763 124.692 2.19801 122.943 2.191 121.22C2.16736 119.498 2.14547 119.835 2.12358 118.195C2.07017 114.917 1.98787 111.856 1.88893 109.233C1.80313 106.608 1.66567 104.423 1.60088 102.891C1.51946 101.362 1.45203 100.487 1.45203 100.487C1.45203 100.487 1.38462 101.362 1.3032 102.891C1.2384 104.423 1.10094 106.608 1.01514 109.233C0.9162 111.856 0.833904 114.917 0.77962 118.195C0.758607 119.835 0.690313 122.943 0.713077 121.22C0.71658 120.531 0.708696 122.281 0.687683 126.439C0.695563 128.191 0.704322 129.938 0.713077 131.66C0.713077 133.383 0.758605 132.367 0.777867 134.009Z" fill="#FFDD9C"/>
<path d="M28.1617 128.847C25.3976 132.133 18.0421 130.506 14.7981 128.849C4.10146 123.39 2.81702 112.521 19.203 108.534C22.7946 107.659 26.0096 111.155 27.2643 114.492C28.5006 117.781 30.8882 125.606 28.1617 128.847Z" fill="#F61D27"/>
<path d="M28.1617 128.847C25.3976 132.133 18.0421 130.506 14.7981 128.849C4.10146 123.39 2.81702 112.521 19.203 108.534C22.7946 107.659 26.0096 111.155 27.2643 114.492C28.5006 117.781 30.8882 125.606 28.1617 128.847Z" fill="#DB3625"/>
<path d="M6.98468 117.31C7.06698 116.948 7.18431 116.59 7.32703 116.237C7.8077 115.76 8.33128 115.303 8.85486 114.836C9.18232 114.55 9.50365 114.251 9.84249 113.967C10.1936 113.697 10.5482 113.43 10.9028 113.159C11.2618 112.896 11.6199 112.632 11.9771 112.369C12.3396 112.12 12.7204 111.913 13.089 111.685C13.4594 111.462 13.8271 111.242 14.1896 111.023L14.461 110.86L14.5276 110.818L14.6108 110.775L14.7526 110.705C14.9417 110.611 15.1291 110.516 15.3165 110.424C16.0616 110.053 16.811 109.756 17.5299 109.509C17.8862 109.371 18.2452 109.275 18.5875 109.172C18.894 109.075 19.1925 108.992 19.4859 108.926C19.4167 109.063 19.3571 109.199 19.3072 109.333C19.1085 109.394 18.908 109.463 18.704 109.538C18.3713 109.652 18.0272 109.766 17.6831 109.918C16.9888 110.19 16.2743 110.525 15.5459 110.887C15.3664 110.982 15.1834 111.075 14.9995 111.172L14.862 111.243L14.8051 111.273L14.7386 111.315L14.4698 111.482C14.1099 111.707 13.7466 111.935 13.3789 112.161C13.0164 112.394 12.6338 112.61 12.2827 112.862C11.9386 113.124 11.5936 113.386 11.2495 113.648C10.901 113.905 10.5517 114.162 10.205 114.418C9.87139 114.69 9.5483 114.979 9.22172 115.259C8.57293 115.821 7.92152 116.358 7.35241 116.951C7.23158 117.075 7.10813 117.189 6.98468 117.31Z" fill="#D71E15"/>
<path d="M9.09652 124.469C8.99233 124.343 8.89164 124.215 8.79358 124.086C9.07638 123.443 9.40121 122.779 9.73742 122.096C10.0815 121.343 10.5245 120.608 10.9571 119.853C11.176 119.478 11.3878 119.094 11.6181 118.719C11.8676 118.352 12.1198 117.984 12.372 117.617C12.6285 117.255 12.8859 116.891 13.1425 116.53C13.4069 116.178 13.7046 115.863 13.9804 115.53C14.2632 115.2 14.5398 114.876 14.8165 114.553L15.0223 114.312L15.0731 114.253L15.1387 114.186L15.2508 114.074C15.4005 113.923 15.5485 113.777 15.6965 113.63C16.2875 113.044 16.9038 112.525 17.5097 112.062C17.8039 111.821 18.1121 111.615 18.4063 111.411C18.6471 111.236 18.8843 111.074 19.1225 110.928C19.1418 111.052 19.1689 111.172 19.2039 111.292C19.013 111.425 18.8231 111.567 18.6304 111.721C18.3538 111.935 18.0596 112.152 17.782 112.401C17.2094 112.882 16.6385 113.424 16.0616 113.995C15.918 114.142 15.7779 114.291 15.6325 114.44L15.524 114.55L15.4793 114.597L15.4294 114.657L15.2263 114.901C14.9575 115.226 14.6826 115.555 14.4068 115.887C14.1362 116.225 13.8403 116.549 13.5864 116.899C13.343 117.257 13.0987 117.614 12.8527 117.972C12.604 118.324 12.3545 118.678 12.1058 119.031C11.8738 119.396 11.6584 119.771 11.4378 120.139C10.9982 120.878 10.5499 121.593 10.198 122.334C9.83548 123.069 9.44499 123.755 9.11578 124.434L9.09652 124.469Z" fill="#D71E15"/>
<path d="M15.3699 127.982C15.2175 127.942 15.0652 127.9 14.9128 127.855C14.9794 127.332 15.0599 126.792 15.1405 126.241C15.2394 125.419 15.4382 124.586 15.6194 123.736C15.7149 123.311 15.798 122.882 15.9013 122.45C16.0274 122.028 16.1561 121.599 16.284 121.175C16.4188 120.75 16.5528 120.325 16.685 119.902C16.8303 119.488 17.0168 119.094 17.1788 118.693C17.346 118.296 17.5132 117.899 17.6761 117.511L17.8004 117.218L17.8302 117.145L17.8713 117.063L17.9449 116.921C18.0421 116.732 18.1366 116.546 18.2321 116.36C18.6173 115.623 19.0472 114.943 19.4824 114.317C19.6873 113.995 19.9201 113.706 20.1373 113.423C20.2275 113.298 20.3185 113.178 20.4113 113.062C20.5015 113.141 20.5952 113.218 20.6924 113.292C20.6092 113.408 20.5269 113.527 20.4446 113.649C20.2476 113.938 20.034 114.232 19.8457 114.556C19.4456 115.187 19.0674 115.879 18.6917 116.6C18.6033 116.784 18.5114 116.968 18.4194 117.152L18.3511 117.292L18.3214 117.349L18.2925 117.422L18.1734 117.716C18.0167 118.107 17.8556 118.505 17.6945 118.906C17.5395 119.31 17.3574 119.708 17.2217 120.119C17.0982 120.533 16.9748 120.949 16.8522 121.363C16.7209 121.777 16.5922 122.19 16.4617 122.6C16.3531 123.02 16.2621 123.443 16.1649 123.861C15.9714 124.695 15.763 125.516 15.6536 126.327C15.5678 126.897 15.4627 127.447 15.3699 127.982Z" fill="#D71E15"/>
<path d="M20.1662 128.147C20.1785 127.884 20.1933 127.619 20.2126 127.351C20.3273 125.646 20.5225 123.833 20.7817 122.028C21.0663 120.226 21.4112 118.436 21.8 116.771C22.0022 115.902 22.2272 115.07 22.4601 114.289C22.5932 114.344 22.7281 114.395 22.8655 114.445C22.8611 114.464 22.8559 114.483 22.8515 114.501C22.6624 115.258 22.4934 116.057 22.3069 116.886C21.9444 118.542 21.6301 120.326 21.3736 122.117C21.0925 123.904 20.871 125.701 20.7292 127.391C20.7152 127.593 20.7003 127.792 20.6854 127.99C20.5138 128.05 20.3404 128.101 20.1662 128.147Z" fill="#D71E15"/>
<path d="M22.8392 130.75C22.8375 130.75 22.8349 130.75 22.8331 130.75C22.8349 130.75 22.8375 130.75 22.8392 130.75ZM22.8419 130.75C24.9975 130.749 26.9911 130.239 28.1617 128.847C29.0776 127.758 29.4164 126.152 29.4155 124.375C29.4164 126.152 29.0776 127.758 28.1617 128.847C26.9911 130.239 24.9984 130.749 22.8419 130.75ZM14.8866 128.894C14.8831 128.892 14.8796 128.89 14.8752 128.888C14.8796 128.89 14.8831 128.892 14.8866 128.894ZM14.8542 128.877C14.8533 128.877 14.8524 128.877 14.8524 128.876C14.8524 128.877 14.8533 128.877 14.8542 128.877Z" fill="#FDD2D4"/>
<path d="M22.8392 130.75C22.8374 130.75 22.8348 130.75 22.8331 130.75C19.9455 130.748 16.7681 129.833 14.8865 128.894C14.883 128.892 14.8795 128.89 14.8751 128.888C14.8681 128.884 14.8611 128.881 14.8541 128.877C14.8533 128.877 14.8524 128.877 14.8524 128.876C14.834 128.867 14.8156 128.858 14.7981 128.849C13.1853 128.025 11.7923 127.079 10.6348 126.05C10.957 126.221 11.281 126.39 11.6067 126.548C12.6276 127.039 13.7501 127.512 14.9128 127.855C14.8813 128.109 14.8524 128.36 14.8287 128.607C14.82 128.687 14.8139 128.769 14.8051 128.852C14.9312 128.917 15.0678 128.981 15.207 129.045C15.2254 128.916 15.242 128.791 15.2613 128.659C15.2937 128.436 15.3304 128.211 15.3698 127.982C16.3146 128.229 17.2785 128.382 18.2311 128.382C18.8852 128.382 19.534 128.31 20.1661 128.147C20.1407 128.719 20.1302 129.279 20.1294 129.817C20.1294 130.056 20.1355 130.282 20.1372 130.515C20.2721 130.535 20.4069 130.558 20.5417 130.575C20.547 130.329 20.554 130.084 20.5663 129.828C20.5925 129.237 20.6381 128.622 20.6853 127.99C20.8622 127.929 21.0382 127.86 21.2124 127.782C23.2726 126.863 24.4651 124.21 24.6805 122.155C24.8976 120.064 23.6517 117.691 24.4581 115.837C24.5912 115.532 24.7567 115.239 24.9502 114.966C24.9519 114.966 24.9528 114.966 24.9545 114.966C24.9826 115.919 25.043 116.942 25.1515 118.005C25.3232 119.707 25.5771 121.512 25.8896 123.309C26.2302 125.102 26.6339 126.878 27.076 128.529C27.1706 128.884 27.2713 129.229 27.3755 129.57C27.5226 129.462 27.6618 129.347 27.7948 129.226C27.7248 128.951 27.653 128.68 27.5795 128.398C27.1636 126.754 26.7923 124.983 26.4798 123.201C26.1409 121.423 25.8625 119.635 25.6672 117.949C25.5762 117.106 25.4755 116.292 25.4107 115.519C25.3949 115.351 25.3801 115.183 25.3669 115.019C25.7207 115.056 26.0735 115.076 26.4193 115.076C26.5918 115.076 26.7634 115.07 26.9324 115.061C27.0436 114.892 27.1601 114.718 27.2818 114.539C28.1039 116.736 29.4137 120.886 29.4155 124.375C29.4164 126.152 29.0775 127.758 28.1617 128.847C26.9911 130.239 24.9974 130.749 22.8418 130.75C22.841 130.75 22.8401 130.75 22.8392 130.75Z" fill="#D92C1F"/>
<path d="M27.3755 129.57C27.2713 129.229 27.1706 128.884 27.0761 128.529C26.6339 126.878 26.2303 125.102 25.8897 123.308C25.5771 121.512 25.3232 119.707 25.1516 118.005C25.043 116.942 24.9826 115.919 24.9546 114.966C25.0921 114.986 25.2295 115.004 25.367 115.019C25.3801 115.183 25.395 115.351 25.4108 115.519C25.4755 116.292 25.5762 117.106 25.6673 117.949C25.8625 119.635 26.141 121.423 26.4798 123.201C26.7924 124.983 27.1636 126.754 27.5795 128.398C27.6531 128.68 27.7248 128.951 27.7949 129.225C27.6618 129.347 27.5226 129.462 27.3755 129.57Z" fill="#D51911"/>
<path d="M19.5033 108.891C17.5517 112.703 22.8865 115.295 26.9324 115.061C31.7979 107.667 47.262 89.773 58.6801 88.5069C61.305 88.2145 57.3571 85.5029 56.1156 82.8149C54.9485 80.2898 44.1809 69.8961 42.1478 71.923C30.763 83.2676 25.1936 97.7852 19.5033 108.891Z" fill="#FA5E43"/>
<path d="M43.4971 96.6741C43.4963 96.6732 43.4954 96.6732 43.4945 96.6732C43.6051 96.5793 43.7148 96.4871 43.8254 96.395C43.8254 96.395 43.8254 96.395 43.8254 96.3958C43.7148 96.4871 43.606 96.5819 43.4971 96.6741Z" fill="#FDD2D4"/>
<path d="M40.4265 95.2058C39.98 94.9484 39.5361 94.6411 39.0729 94.332C38.5764 93.9608 38.052 93.586 37.5643 93.1535C37.0819 92.7149 36.5828 92.2762 36.138 91.785C35.6749 91.3087 35.2782 90.779 34.8676 90.2738C34.7818 90.153 34.6977 90.033 34.6137 89.9122C34.8361 89.5559 35.0611 89.2021 35.2905 88.8528C35.4752 89.0944 35.6661 89.3343 35.8447 89.5847C36.2422 90.0514 36.6231 90.5391 37.0687 90.9751C37.4767 91.4444 37.9373 91.8664 38.3838 92.2928C38.8417 92.7035 39.2944 93.1106 39.7462 93.4889C40.2242 93.8373 40.6489 94.2243 41.0954 94.536C41.1199 94.5527 41.1436 94.5684 41.1672 94.5851C40.9186 94.7899 40.6708 94.9966 40.4265 95.2058ZM32.8284 86.431C32.7286 86.1377 32.6419 85.8531 32.5859 85.5747C32.4528 85.1054 32.409 84.6615 32.3644 84.2736V84.2692C32.4782 84.0889 32.5938 83.9103 32.7111 83.7308C32.747 83.8796 32.7881 84.0355 32.8407 84.2018C32.9633 84.5599 33.0911 84.9618 33.2802 85.383C33.2995 85.4337 33.3196 85.4836 33.3406 85.5335C33.1673 85.8312 32.9965 86.1307 32.8284 86.431Z" fill="#F84D38"/>
<path d="M34.0769 105.967C34.0761 105.967 34.0752 105.967 34.0752 105.967C34.1867 105.842 34.299 105.715 34.4123 105.589H34.4131C34.3008 105.716 34.1875 105.843 34.0769 105.967Z" fill="#FDD2D4"/>
<path d="M30.9784 105.428C30.7604 105.363 30.5398 105.294 30.3156 105.225C29.8437 105.05 29.342 104.883 28.8631 104.653C28.3868 104.417 27.8956 104.185 27.4342 103.898C27.2941 103.818 27.1575 103.733 27.0235 103.643C27.2048 103.292 27.3895 102.942 27.5778 102.593C27.7319 102.692 27.8886 102.787 28.0514 102.875C28.4726 103.151 28.9261 103.377 29.3674 103.61C29.8148 103.826 30.257 104.046 30.693 104.241C31.0126 104.358 31.3155 104.499 31.6141 104.622C31.3961 104.888 31.1833 105.156 30.9784 105.428ZM24.8364 101.853C24.5028 101.524 24.2288 101.157 23.9547 100.824C23.8531 100.677 23.7586 100.538 23.6631 100.396C23.791 100.133 23.9179 99.8655 24.0484 99.5993C24.2323 99.8085 24.4328 100.018 24.6306 100.245C24.839 100.438 25.0492 100.641 25.2707 100.843C25.1245 101.18 24.98 101.516 24.8364 101.853Z" fill="#F84D38"/>
<path d="M38.6352 101.146H38.6317C38.7431 101.035 38.8564 100.924 38.9687 100.813C38.9696 100.814 38.9705 100.814 38.9705 100.814C38.8581 100.923 38.7466 101.036 38.6352 101.146Z" fill="#FDD2D4"/>
<path d="M35.6066 100.173C35.3579 100.061 35.1058 99.9382 34.8466 99.8165C34.3922 99.5695 33.908 99.3226 33.4536 99.0188C33.0018 98.7062 32.5343 98.4007 32.1061 98.0391C31.6666 97.6932 31.2744 97.2905 30.8742 96.9113C30.8348 96.8684 30.7954 96.8255 30.756 96.7826C30.9452 96.4289 31.1343 96.0743 31.3234 95.7206C31.4468 95.8423 31.5712 95.9649 31.6902 96.0927C32.0737 96.4342 32.4432 96.7993 32.8626 97.1119C33.2549 97.4559 33.6839 97.7545 34.0998 98.0583C34.5253 98.3455 34.9447 98.6345 35.3623 98.8971C35.6696 99.0617 35.9577 99.2491 36.2431 99.4181C36.0356 99.672 35.8237 99.9233 35.6066 100.173ZM28.6836 93.7392C28.5925 93.544 28.5111 93.3513 28.4481 93.1596C28.2861 92.7717 28.2029 92.3917 28.125 92.0608C28.0891 91.9233 28.0725 91.7946 28.0567 91.6685C28.1285 91.5328 28.2038 91.3988 28.2765 91.2605C28.3561 91.4558 28.4393 91.6729 28.5566 91.9172C28.7029 92.2061 28.8587 92.5292 29.0671 92.8637C29.0811 92.8899 29.096 92.9162 29.1109 92.9425C28.9673 93.2078 28.8246 93.473 28.6836 93.7392Z" fill="#F84D38"/>
<path d="M30.2473 110.536C30.2455 110.536 30.2447 110.536 30.2429 110.536C30.4128 110.321 30.5861 110.102 30.763 109.883C30.587 110.103 30.4163 110.321 30.2473 110.536ZM20.9567 105.986C20.9567 105.986 20.9567 105.985 20.9559 105.985C20.9935 105.909 21.0312 105.833 21.0688 105.757C21.032 105.833 20.9944 105.909 20.9567 105.986Z" fill="#FDD2D4"/>
<path d="M27.9236 110.162C27.4473 110.029 26.9447 109.906 26.457 109.721C25.9615 109.526 25.4528 109.342 24.9677 109.094C24.9301 109.075 24.8924 109.058 24.8556 109.04C24.994 108.579 25.1017 108.175 25.1752 107.954C25.1831 107.929 25.191 107.905 25.1989 107.88C25.296 107.929 25.395 107.975 25.4948 108.018C25.9396 108.259 26.4097 108.447 26.8694 108.64C27.3335 108.817 27.7949 108.999 28.2449 109.156C28.3298 109.18 28.4139 109.204 28.4971 109.23C28.3062 109.541 28.1153 109.852 27.9236 110.162ZM22.6203 107.62C22.51 107.532 22.4023 107.443 22.2981 107.35C21.8954 107.037 21.5653 106.662 21.2378 106.328C21.1415 106.212 21.0505 106.099 20.9568 105.986C20.9944 105.909 21.0321 105.833 21.0689 105.757C21.159 105.575 21.2483 105.392 21.3385 105.207C21.5084 105.366 21.6861 105.522 21.8639 105.693C22.2071 105.963 22.5547 106.251 22.9426 106.521C22.8208 106.888 22.7105 107.257 22.6203 107.62Z" fill="#F84D38"/>
<path d="M26.4342 115.075C25.8931 115.074 25.3363 115.028 24.7812 114.937C25.2566 114.087 25.8292 113.304 26.225 112.75C26.8186 111.917 27.3755 111.045 27.9236 110.162C27.9332 110.165 27.9428 110.167 27.9533 110.17C28.4463 110.273 28.9217 110.385 29.3796 110.44C29.6808 110.475 29.9654 110.506 30.2429 110.536C28.8832 112.257 27.7563 113.81 26.9324 115.061C26.7687 115.07 26.6023 115.075 26.4342 115.075ZM30.763 109.883C30.3882 109.8 29.9916 109.664 29.5643 109.565C29.2176 109.476 28.8648 109.344 28.497 109.23C29.1274 108.203 29.7587 107.173 30.4329 106.184C30.608 105.929 30.7901 105.677 30.9784 105.428C31.2279 105.501 31.4731 105.567 31.7138 105.616C32.1665 105.712 32.5903 105.809 32.9895 105.853C33.3879 105.903 33.753 105.937 34.0752 105.967C32.8757 107.318 31.7637 108.638 30.763 109.883ZM34.4114 105.59C34.3291 105.566 34.2486 105.544 34.1593 105.515C33.8572 105.413 33.5192 105.297 33.1471 105.185C32.7785 105.069 32.3915 104.9 31.9739 104.762C31.8548 104.72 31.7348 104.672 31.614 104.622C32.8713 103.095 34.3116 101.666 35.6066 100.173C35.8114 100.266 36.0146 100.351 36.2168 100.423C36.6633 100.588 37.081 100.751 37.4802 100.858C37.8786 100.968 38.2464 101.057 38.5712 101.136L38.6316 101.146C37.1467 102.618 35.7291 104.119 34.4114 105.59ZM38.9678 100.814C38.8855 100.778 38.8076 100.741 38.7174 100.702C38.4241 100.551 38.0949 100.385 37.7324 100.217C37.3725 100.045 37.0013 99.8165 36.595 99.6133C36.4769 99.5538 36.3604 99.4873 36.2431 99.4181C36.2475 99.412 36.2527 99.4058 36.258 99.3997C37.5021 97.8701 38.9214 96.492 40.4265 95.2058C40.4781 95.2356 40.5298 95.2645 40.5815 95.2933C41.0805 95.5656 41.5437 95.8344 41.9955 96.0367C42.4446 96.2433 42.8605 96.4202 43.23 96.5769C43.3228 96.6146 43.406 96.6417 43.4944 96.6732C41.9438 97.9848 40.4247 99.3839 38.9678 100.814ZM43.8245 96.3957C43.7028 96.3204 43.5802 96.2451 43.4454 96.1619C43.1206 95.9395 42.7555 95.6891 42.3527 95.4299C41.9718 95.1839 41.591 94.874 41.1672 94.585C41.7503 94.1052 42.344 93.6377 42.9428 93.1789C44.3192 92.1212 45.7376 91.1161 47.1998 90.181C47.4274 91.644 47.4108 92.9285 47.1525 93.7979C46.0353 94.606 44.9225 95.4781 43.8245 96.3957Z" fill="#F84D38"/>
<path d="M43.4945 96.6732C43.406 96.6417 43.3229 96.6146 43.2301 96.5769C42.8606 96.4202 42.4447 96.2433 41.9955 96.0367C41.5437 95.8344 41.0806 95.5656 40.5815 95.2933C40.5298 95.2645 40.4782 95.2356 40.4265 95.2058C40.6708 94.9965 40.9186 94.7899 41.1672 94.585C41.591 94.874 41.9719 95.1839 42.3527 95.4299C42.7555 95.6891 43.1206 95.9395 43.4454 96.1619C43.5803 96.2451 43.7028 96.3204 43.8245 96.3957C43.7142 96.4876 43.6048 96.5795 43.4945 96.6732Z" fill="#F63F2F"/>
<path d="M34.0752 105.967C33.753 105.937 33.3879 105.903 32.9896 105.853C32.5903 105.809 32.1665 105.712 31.7139 105.616C31.4731 105.567 31.2279 105.501 30.9784 105.428C31.1833 105.156 31.396 104.888 31.614 104.622C31.7349 104.672 31.8548 104.72 31.9739 104.762C32.3916 104.9 32.7785 105.069 33.1471 105.185C33.5193 105.297 33.8572 105.413 34.1593 105.515C34.2486 105.544 34.3292 105.566 34.4115 105.59C34.2985 105.716 34.1864 105.842 34.0752 105.967Z" fill="#F63F2F"/>
<path d="M38.6316 101.146L38.5712 101.136C38.2464 101.057 37.8786 100.968 37.4802 100.857C37.081 100.751 36.6634 100.588 36.2168 100.423C36.0146 100.351 35.8114 100.266 35.6066 100.173C35.8237 99.9233 36.0356 99.672 36.2431 99.4181C36.3604 99.4873 36.4769 99.5538 36.5951 99.6133C37.0013 99.8165 37.3725 100.045 37.7324 100.217C38.0949 100.385 38.4241 100.551 38.7174 100.702C38.8076 100.741 38.8855 100.778 38.9678 100.814C38.8557 100.925 38.7428 101.035 38.6316 101.146Z" fill="#F63F2F"/>
<path d="M30.2429 110.536C29.9654 110.506 29.6808 110.475 29.3796 110.44C28.9217 110.385 28.4463 110.273 27.9533 110.17C27.9428 110.167 27.9332 110.165 27.9236 110.162C28.1153 109.852 28.3062 109.541 28.4971 109.23C28.8648 109.344 29.2177 109.476 29.5644 109.565C29.9917 109.664 30.3883 109.8 30.763 109.883C30.5862 110.102 30.4128 110.321 30.2429 110.536Z" fill="#F63F2F"/>
<path d="M23.2779 111.572C22.5109 111.571 22.3901 110.244 22.3673 109.582C22.3472 108.982 22.4488 108.311 22.6204 107.62C22.9163 107.856 23.2333 108.077 23.5555 108.297C23.9819 108.547 24.4056 108.818 24.8557 109.04C24.551 110.052 24.1001 111.334 23.5493 111.523C23.4513 111.556 23.3611 111.572 23.2779 111.572ZM25.1989 107.88C24.8452 107.705 24.5063 107.503 24.164 107.316C23.7551 107.041 23.3173 106.814 22.9461 106.523C22.9443 106.522 22.9435 106.521 22.9426 106.521C23.2893 105.474 23.7323 104.439 24.1027 103.574C24.3478 103 24.5913 102.426 24.8364 101.853C24.8644 101.881 24.8924 101.909 24.9222 101.936C25.2759 102.305 25.6787 102.646 26.0937 102.984C26.4001 103.202 26.7057 103.433 27.0235 103.644C26.3284 104.998 25.6971 106.383 25.1989 107.88ZM27.5778 102.593C27.3081 102.419 27.0472 102.235 26.7836 102.06C26.4001 101.751 25.9843 101.485 25.6384 101.165C25.5115 101.059 25.3889 100.951 25.2707 100.843C25.8678 99.4627 26.4798 98.0942 27.1391 96.7555C27.6312 95.7565 28.1486 94.7461 28.6836 93.7392C28.7825 93.9529 28.8946 94.1709 29.0093 94.3968C29.2571 94.8074 29.504 95.2601 29.835 95.6681C30.1072 96.0542 30.4233 96.4184 30.756 96.7827C30.306 97.6267 29.8568 98.4663 29.4024 99.2946C28.7869 100.417 28.1661 101.502 27.5778 102.593ZM31.3234 95.7206C31.0879 95.4877 30.8523 95.2592 30.6518 95.0088C30.3244 94.6472 30.0416 94.2733 29.7614 93.9213C29.5381 93.5746 29.2939 93.2612 29.1109 92.9425C29.8805 91.5206 30.6834 90.1118 31.5003 88.7556C31.9591 87.9947 32.3898 87.2111 32.8285 86.431C32.9003 86.642 32.9791 86.8574 33.0579 87.0797C33.2908 87.5902 33.5097 88.1462 33.8362 88.6706C34.0613 89.0918 34.33 89.5024 34.6137 89.9122C33.4449 91.7894 32.3741 93.7567 31.3234 95.7206ZM35.2905 88.8527C35.1128 88.6198 34.9412 88.3861 34.7941 88.1427C34.4631 87.6655 34.1952 87.1813 33.9203 86.7252C33.7233 86.3066 33.5 85.917 33.3407 85.5335C34.0157 84.3734 34.7407 83.2466 35.6338 82.2476C36.2204 81.5909 37.6493 80.5157 38.7359 80.5157C39.375 80.5157 39.896 80.8878 40.0562 81.9376C40.2444 83.1756 38.4539 84.6553 37.7114 85.5484C36.8481 86.5921 36.047 87.7014 35.2905 88.8527Z" fill="#FB684E"/>
<path d="M34.6137 89.9122C34.33 89.5024 34.0612 89.0918 33.8362 88.6706C33.5096 88.1462 33.2907 87.5902 33.0578 87.0797C32.979 86.8573 32.9002 86.642 32.8284 86.431C32.9965 86.1306 33.1673 85.8312 33.3406 85.5335C33.5 85.917 33.7233 86.3066 33.9203 86.7252C34.1952 87.1813 34.4631 87.6655 34.7941 88.1427C34.9412 88.3861 35.1128 88.6198 35.2905 88.8527C35.0611 89.2021 34.8361 89.5558 34.6137 89.9122Z" fill="#F95943"/>
<path d="M27.0235 103.644C26.7057 103.433 26.4001 103.202 26.0937 102.984C25.6786 102.646 25.2759 102.305 24.9222 101.936C24.8924 101.909 24.8644 101.881 24.8364 101.853C24.98 101.516 25.1244 101.18 25.2706 100.844C25.3888 100.951 25.5114 101.059 25.6384 101.165C25.9842 101.485 26.4001 101.751 26.7836 102.06C27.0471 102.235 27.3081 102.42 27.5777 102.593C27.3895 102.942 27.2047 103.292 27.0235 103.644Z" fill="#F95943"/>
<path d="M30.756 96.7827C30.4233 96.4185 30.1072 96.0543 29.8349 95.6681C29.504 95.2601 29.2571 94.8075 29.0093 94.3968C28.8946 94.1709 28.7825 93.9529 28.6836 93.7393C28.8246 93.4731 28.9673 93.2078 29.1109 92.9426C29.2938 93.2613 29.5381 93.5747 29.7614 93.9214C30.0416 94.2734 30.3244 94.6472 30.6518 95.0088C30.8523 95.2593 31.0878 95.4878 31.3234 95.7207C31.1342 96.0744 30.9451 96.429 30.756 96.7827Z" fill="#F95943"/>
<path d="M24.8556 109.04C24.4056 108.818 23.9818 108.547 23.5555 108.297C23.2333 108.077 22.9163 107.856 22.6204 107.62C22.7105 107.257 22.8209 106.888 22.9426 106.521C22.9434 106.521 22.9443 106.522 22.9461 106.523C23.3173 106.814 23.7551 107.041 24.164 107.316C24.5063 107.503 24.8451 107.705 25.1989 107.88C25.191 107.905 25.1831 107.929 25.1752 107.954C25.1017 108.175 24.994 108.579 24.8556 109.04Z" fill="#F95943"/>
<path d="M136.384 48.3794C137.802 44.7309 141.488 39.0652 144.683 35.1681C137.376 36.6154 127.959 38.4366 122.999 44.1986C120.031 47.6483 121.358 50.3336 124.841 52.6302C131.464 56.9983 134.263 53.8472 136.384 48.3794Z" fill="#FA5E43"/>
<path d="M153.195 30.9917C147.238 36.5453 136.104 47.4399 132.258 48.9012C129.758 45.9471 129.006 39.4986 129.006 39.4986C125.81 40.8399 122.78 43.2066 120.086 45.5233C115.819 49.1927 113.212 56.6963 117.294 61.574C120.726 65.6742 129.063 63.1491 133.242 61.1633C144.44 55.8487 152.106 43.1356 153.195 30.9917Z" fill="#DB3625"/>
<path d="M129.032 39.7017C129.024 39.6386 129.017 39.5896 129.013 39.5554C129.018 39.5905 129.024 39.6412 129.033 39.7008C129.033 39.7017 129.033 39.7017 129.032 39.7017ZM141.355 39.6176C142.431 38.0547 143.558 36.5444 144.631 35.2311C143.559 36.5435 142.435 38.0547 141.359 39.6159L141.355 39.6176ZM143.75 35.3528C144.064 35.2906 144.376 35.2293 144.683 35.168C144.375 35.2293 144.064 35.2906 143.75 35.3528ZM144.634 35.2276C144.641 35.2197 144.647 35.2118 144.654 35.203C144.647 35.2118 144.641 35.2197 144.634 35.2276ZM144.66 35.196C144.668 35.1864 144.675 35.1777 144.683 35.168C144.675 35.1777 144.668 35.1864 144.66 35.196Z" fill="#FDD2D4"/>
<path d="M129.891 43.8265C129.364 41.9572 129.109 40.27 129.032 39.7017C129.033 39.7017 129.033 39.7017 129.033 39.7009C129.034 39.7035 129.034 39.7061 129.035 39.7088C133.566 37.4463 139.023 36.2923 143.75 35.3528C144.064 35.2907 144.375 35.2294 144.683 35.1681C144.675 35.1777 144.668 35.1865 144.66 35.1961C144.658 35.1987 144.656 35.2005 144.654 35.2031C144.647 35.2119 144.641 35.2198 144.634 35.2277C144.633 35.2294 144.633 35.2303 144.631 35.2312C143.558 36.5445 142.431 38.0548 141.355 39.6177L141.345 39.6229C139.305 40.446 136.931 40.6526 134.939 41.4616C133.205 42.1647 131.531 42.9824 129.891 43.8265Z" fill="#F84D38"/>
<path d="M115.273 56.4065C115.258 56.1841 115.251 55.9608 115.251 55.7367C115.251 51.8947 117.319 47.9031 120.086 45.5233C122.78 43.2066 125.81 40.84 129.006 39.4986C129.007 39.5004 129.008 39.5205 129.013 39.5556C129.017 39.5897 129.024 39.6387 129.032 39.7018C129.109 40.27 129.364 41.9572 129.891 43.8265C129.478 44.0393 129.067 44.2529 128.658 44.4665C124.105 46.8489 122.452 51.3239 120.394 55.9092C120.357 55.9915 120.32 56.0738 120.283 56.1561C119.843 56.0169 119.349 55.9652 118.842 55.9652C117.672 55.9652 116.435 56.2419 115.652 56.3478C115.527 56.3653 115.401 56.3846 115.273 56.4065Z" fill="#D92C1F"/>
<path d="M131.644 59.8342C131.237 59.8342 130.832 59.7869 130.431 59.6801C126.698 58.6881 130.531 56.3714 132.177 55.2481C135.965 52.6661 139.744 50.2075 142.973 46.939C145.041 44.8465 146.72 42.7268 148.514 40.4529C147.356 43.7555 146.942 46.8112 145.063 49.8625C142.904 53.37 139.924 56.2471 136.337 58.2731C134.925 59.069 133.275 59.8342 131.644 59.8342Z" fill="#E24331"/>
<path d="M119.35 61.8086C120.792 60.3526 122.794 58.5332 121.386 56.8591C120.13 55.3654 117.109 56.1499 115.652 56.3478C110.74 57.0167 102.289 61.9128 95.5498 58.5822C92.6797 57.1655 88.2188 71.1333 90.089 71.7103C100.892 75.0479 114.408 66.7967 119.35 61.8086Z" fill="#FA5E43"/>
<path d="M98.3858 63.2498C98.1153 63.2498 97.8447 63.2454 97.5742 63.2358C98.3464 62.0721 99.0696 60.8893 99.7377 59.6915C100.102 59.7195 100.467 59.7327 100.834 59.7327C105.086 59.7318 109.478 57.9789 112.952 56.9694C112.862 57.5044 112.766 58.0437 112.675 58.5909C112.52 59.4787 112.319 60.3779 112.137 61.2903C112.127 61.3393 112.115 61.3892 112.105 61.4391C109.125 62.3584 105.752 62.896 102.659 63.058C101.343 63.1263 99.8637 63.2498 98.3858 63.2498ZM113.115 61.1046C113.283 60.3149 113.46 59.5374 113.603 58.7608C113.725 58.063 113.856 57.3713 113.973 56.6892C114.569 56.5378 115.131 56.4187 115.652 56.3477C116.435 56.2427 117.667 55.9678 118.835 55.9678C119.469 55.9678 120.084 56.0483 120.597 56.2803C120.34 56.5377 120.094 56.7706 119.881 56.9694C117.873 58.8335 115.692 60.1827 113.115 61.1046Z" fill="#F84D38"/>
<path d="M106.792 12.8037C110.666 12.2443 117.016 9.92669 121.532 7.68965C118.478 14.4848 114.584 23.2509 107.854 26.7872C103.826 28.9034 101.507 27.007 100.054 23.0968C97.2887 15.6607 100.988 13.6416 106.792 12.8037Z" fill="#FA5E43"/>
<path d="M127.517 0.33674C120.764 4.8905 107.645 13.2888 105.356 16.7061C107.67 19.8082 113.787 21.991 113.787 21.991C111.762 24.805 108.772 27.2242 105.908 29.3272C101.374 32.6605 93.4765 33.5115 89.6415 28.4368C86.4177 24.1702 90.7553 16.6159 93.6297 12.9885C101.328 3.27423 115.439 -1.33557 127.517 0.33674Z" fill="#DB3625"/>
<path d="M113.786 21.991C113.785 21.991 113.778 21.9883 113.766 21.984C113.778 21.9883 113.785 21.991 113.786 21.991ZM116.592 9.87414C116.593 9.87239 116.594 9.87153 116.596 9.86978C118.116 9.26565 119.606 8.61949 120.955 7.97071C119.605 8.62037 118.115 9.26913 116.592 9.87414Z" fill="#FDD2D4"/>
<path d="M113.588 21.9174C112.828 21.6302 110.038 20.5191 107.744 18.9072C107.954 18.7094 108.167 18.5036 108.385 18.29C110.687 16.0416 113.2 14.1206 115.28 11.5841C115.737 11.0281 116.166 10.4511 116.592 9.87413C118.115 9.26912 119.605 8.62035 120.955 7.97069C121.151 7.87701 121.343 7.78333 121.532 7.68964C119.472 12.2741 117.025 17.7498 113.588 21.9174Z" fill="#F84D38"/>
<path d="M99.6218 31.8724C98.2709 31.3173 96.7877 31.0205 95.2493 30.8594C95.0725 30.8419 94.8947 30.8262 94.717 30.8122C95.6206 29.5627 96.1905 26.9404 95.181 25.5439C95.315 25.4897 95.4533 25.4354 95.5978 25.3828C97.8891 24.5423 100.187 23.6527 102.402 22.6231C104.622 21.5891 106.094 20.4639 107.744 18.9072C110.037 20.5191 112.828 21.6302 113.588 21.9174C113.587 21.9174 113.587 21.9182 113.587 21.9182C113.675 21.9506 113.736 21.9734 113.766 21.9839C113.778 21.9883 113.785 21.9909 113.786 21.9909C113.787 21.9909 113.787 21.9909 113.787 21.9909C111.762 24.805 108.771 27.2241 105.907 29.3272C104.167 30.6055 101.932 31.5196 99.6218 31.8724Z" fill="#D92C1F"/>
<path d="M95.5796 19.8713C95.042 19.8713 94.6252 19.4037 94.4746 18.1228C94.2312 16.0635 95.471 14.0821 96.7073 12.4789C99.221 9.214 102.492 6.67314 106.271 5.03322C109.559 3.60782 112.64 3.63146 116.075 2.95378C113.568 4.40632 111.233 5.76957 108.867 7.51893C105.174 10.2498 102.203 13.6417 99.1081 17.0257C98.2124 18.0055 96.6539 19.8713 95.5796 19.8713Z" fill="#E24331"/>
<path d="M89.8752 26.381C91.6175 25.3041 93.8406 23.7631 95.1565 25.5107C96.3289 27.0709 95.4603 30.2317 94.3641 31.2114C90.0967 35.028 90.3883 42.9509 87.9892 47.0958C86.3887 49.8651 72.3553 49.3328 73.0023 47.4854C75.355 40.7401 83.9039 30.075 89.8752 26.381Z" fill="#FA5E43"/>
<path d="M85.3715 42.9421C85.7997 41.5474 86.3548 40.171 86.874 38.8419C87.7767 36.5339 88.7485 34.1472 89.9866 31.9338C90.04 31.9294 90.0934 31.925 90.1477 31.9207C91.0197 31.862 91.8778 31.8042 92.7192 31.7481C92.8356 31.7455 92.953 31.7438 93.0694 31.7438C93.3155 31.7438 93.5615 31.7499 93.8066 31.7604C91.2798 34.4895 90.5592 38.82 89.6197 42.549C88.1812 42.6226 86.7645 42.7556 85.3715 42.9421ZM90.582 30.9181C91.4181 29.5601 92.3707 28.2862 93.4905 27.1602C94.036 26.6121 94.6297 26.1166 95.2513 25.6604C96.1549 27.0806 95.5945 29.596 94.7163 30.8122C94.2243 30.7737 93.7261 30.7518 93.2156 30.7518C93.0396 30.7518 92.8619 30.7544 92.6833 30.7596C91.9933 30.8122 91.2929 30.8647 90.582 30.9181Z" fill="#F84D38"/>
<path d="M89.7711 42.5411C99.8251 42.0569 106.562 45.4462 101.295 56.6603C91.4968 77.5222 64.4929 94.5859 47.0842 94.0045C48.4247 90.4007 44.8752 77.9967 36.1573 78.2935C37.7683 73.654 58.4769 44.0505 89.7711 42.5411Z" fill="#DB3625"/>
<path d="M71.1446 89.3134C69.284 91.2641 61.9635 102.228 59.8964 103.422C59.8298 103.415 59.7125 103.522 59.6757 103.63C59.6249 103.775 59.723 103.92 60.2947 103.779C64.8879 103.277 72.908 90.1565 73.4368 88.6558C70.3137 86.7296 66.8045 86.1929 65.1786 88.1646C64.451 89.0472 65.5078 88.9929 67.0593 88.9378C68.3253 88.8931 69.9206 88.8484 71.1446 89.3134Z" fill="#ED5349"/>
<path d="M60.1747 103.806C60.2124 103.799 60.2518 103.79 60.2947 103.779C64.8879 103.277 72.908 90.1565 73.4368 88.6558C72.908 90.1565 64.8879 103.277 60.2947 103.779C60.2509 103.791 60.2115 103.799 60.1747 103.806ZM73.4368 88.6558C73.0367 88.4089 72.6313 88.1856 72.2242 87.9869C72.6313 88.1856 73.0367 88.4089 73.4368 88.6558Z" fill="#FDD2D4"/>
<path d="M59.9216 103.833C64.5848 102.242 71.8685 90.3035 72.3711 88.8746C70.6095 87.7872 68.7262 87.1454 67.1256 87.1454C66.9654 87.1454 66.8078 87.1524 66.6537 87.1647C67.1213 87.0036 67.6405 86.9274 68.1929 86.9274C69.4292 86.9274 70.8363 87.3109 72.224 87.9868C72.6311 88.1856 73.0365 88.4088 73.4367 88.6557C72.9078 90.1564 64.8877 103.277 60.2946 103.779C60.2517 103.79 60.2122 103.798 60.1746 103.806C60.0722 103.826 59.9925 103.831 59.9216 103.833Z" fill="#EB443D"/>
<path d="M76.8102 84.4864C75.5687 86.7103 71.4597 98.469 69.8522 100.049C69.7033 100.074 69.4485 100.742 70.3013 100.285C74.3832 98.7387 78.6218 84.8401 78.7514 83.3429C75.4409 82.3203 72.1015 82.6582 71.0806 84.8419C70.578 85.9206 71.7845 85.4504 73.421 84.9793C74.4856 84.6729 75.7324 84.3664 76.8102 84.4864Z" fill="#ED5349"/>
<path d="M77.8242 86.804C78.3784 85.0677 78.7164 83.7491 78.7514 83.3429C78.7164 83.7491 78.3784 85.0677 77.8242 86.804ZM78.7514 83.3429C78.3495 83.2186 77.9476 83.1152 77.5493 83.0321C77.551 83.0312 77.5484 83.0329 77.5501 83.0312C77.9476 83.1144 78.3495 83.2186 78.7514 83.3429Z" fill="#FDD2D4"/>
<path d="M77.5491 83.032C77.2961 82.9786 77.0439 82.934 76.7944 82.8981C77.0439 82.934 77.2961 82.9786 77.55 83.0312C77.5482 83.0329 77.5509 83.0312 77.5491 83.032Z" fill="#D92C1F"/>
<path d="M70.944 99.9355C74.6109 96.5524 78.0606 85.1492 78.177 83.8017C77.0073 83.4383 75.834 83.2466 74.7615 83.2466C73.569 83.2466 72.4999 83.483 71.697 83.9847C72.5244 83.1695 73.8342 82.7904 75.3419 82.7904C75.8104 82.7904 76.2972 82.8272 76.7945 82.8981C77.044 82.934 77.2962 82.9787 77.5492 83.0321C77.9476 83.1152 78.3495 83.2186 78.7514 83.3429C78.7164 83.7491 78.3784 85.0677 77.8242 86.804C76.4416 91.1318 73.7082 98.0592 70.944 99.9355Z" fill="#EB443D"/>
<path d="M82.8044 80.1208C81.9078 82.4533 79.5534 94.4519 78.2094 96.21C78.0711 96.2538 77.917 96.9376 78.6796 96.3738C82.4314 94.3048 84.6142 80.2128 84.531 78.7392C81.1715 78.206 77.9748 78.9975 77.2875 81.2652C76.7289 83.11 80.105 80.2066 82.8044 80.1208Z" fill="#ED5349"/>
<path d="M78.2609 96.5944C78.2609 96.5935 78.2618 96.5935 78.2627 96.5927C78.3529 96.5787 78.4851 96.5174 78.6742 96.3782C78.4824 96.5183 78.3511 96.5804 78.2609 96.5944ZM84.5308 78.7392C84.1674 78.6823 83.8058 78.6394 83.4495 78.6131C83.8058 78.6394 84.1674 78.6814 84.5308 78.7392Z" fill="#FDD2D4"/>
<path d="M81.1547 78.6744C81.6039 78.6114 82.0758 78.5799 82.5626 78.5799C82.8542 78.5799 83.1501 78.5913 83.4496 78.6132C83.1492 78.5913 82.8533 78.5799 82.5626 78.5799C82.0758 78.5799 81.6039 78.6114 81.1547 78.6744Z" fill="#D92C1F"/>
<path d="M78.2627 96.5927C81.6844 93.5606 83.657 80.7512 83.5791 79.3495C82.9145 79.2444 82.257 79.191 81.6248 79.191C80.3369 79.191 79.1523 79.4107 78.2189 79.8573C78.936 79.233 79.9657 78.8416 81.1547 78.6744C81.6038 78.6114 82.0758 78.5798 82.5626 78.5798C82.8533 78.5798 83.1492 78.5912 83.4495 78.6131C83.8059 78.6394 84.1675 78.6823 84.5308 78.7392C84.5317 78.7672 84.5326 78.7987 84.5326 78.8346C84.5326 80.732 82.3621 94.3433 78.6795 96.3738C78.6777 96.3755 78.676 96.3764 78.6742 96.3781C78.4851 96.5174 78.3529 96.5786 78.2627 96.5927Z" fill="#EB443D"/>
<path d="M53.1326 78.2384C53.1326 78.2384 53.608 77.7209 54.4415 76.8121C55.2724 75.9033 56.4142 74.5637 57.8509 73.0122C58.5715 72.2373 59.3595 71.4056 60.2158 70.5467C60.6361 70.108 61.0914 69.6851 61.5502 69.2403C62.0063 68.7947 62.4817 68.3516 62.9834 67.9182C63.4834 67.484 63.9781 67.0269 64.5017 66.5909C65.0279 66.1584 65.562 65.718 66.0987 65.2775C66.6319 64.831 67.2036 64.4248 67.7587 63.9922C68.3182 63.5658 68.8768 63.1325 69.4608 62.7341C70.0422 62.3339 70.6244 61.9321 71.2032 61.5319C71.7863 61.1388 72.3843 60.7746 72.9691 60.3981C74.1328 59.6363 75.3183 58.9552 76.4635 58.2906C77.5938 57.6007 78.7426 57.0368 79.8151 56.4712C80.8833 55.8951 81.9164 55.4022 82.8734 54.9512C83.8286 54.4995 84.6972 54.0678 85.4896 53.7369C86.2802 53.4007 86.9693 53.1073 87.5375 52.8657C88.6731 52.3911 89.3228 52.1206 89.3228 52.1206C89.3228 52.1206 88.6924 52.4297 87.5848 52.9734C87.0297 53.2404 86.3573 53.5652 85.585 53.9382C84.8119 54.3077 83.967 54.7796 83.0232 55.2524C82.0846 55.7322 81.0672 56.2514 80.0217 56.8556C78.9702 57.451 77.8477 58.0525 76.7253 58.7407C75.5923 59.4096 74.4182 60.0995 73.2703 60.8691C72.6942 61.2474 72.1006 61.6151 71.5262 62.0126C70.9554 62.4154 70.3801 62.8181 69.8075 63.2209C69.2244 63.6114 68.6658 64.036 68.1063 64.4554C67.5521 64.8774 66.9795 65.2776 66.4436 65.7136C65.9069 66.147 65.3746 66.5769 64.8466 67.0024C64.323 67.4314 63.8275 67.8788 63.3284 68.3061C62.8241 68.729 62.3539 69.1729 61.8829 69.5975C61.4162 70.0248 60.9513 70.4354 60.5205 70.8592C59.6432 71.6875 58.8342 72.4939 58.0935 73.2434C56.6173 74.7537 55.3871 76.011 54.5238 76.8927C54.0957 77.3357 53.7341 77.6588 53.4985 77.8899C53.2595 78.1167 53.1326 78.2384 53.1326 78.2384Z" fill="#ED5349"/>
<path d="M48.8765 71.1176C47.1849 71.1176 45.9819 70.4285 46.5527 68.3762C47.5211 64.8967 50.8911 61.8297 53.3969 59.4919C57.8903 55.2998 62.62 52.962 68.108 50.1979C71.7057 48.3864 75.3585 47.1746 79.3195 46.3341C81.4182 45.8884 83.6763 44.8745 85.8625 44.8745C85.9895 44.8745 86.1173 44.878 86.2443 44.885C89.0101 45.0426 89.6615 47.0039 87.4683 48.6727C83.6946 51.5471 78.5788 52.3194 74.4724 54.6177C71.0831 56.5159 67.5424 58.7031 64.3965 60.9585C61.0038 63.3917 58.385 66.6846 55.0412 69.1852C53.9205 70.0231 51.0093 71.1184 48.8765 71.1176Z" fill="#E24331"/>
<path d="M59.1818 84.3375C58.9839 84.3375 58.7869 84.3305 58.5917 84.3174C53.7892 83.9838 58.5794 77.4399 60.6685 76.0477C64.1418 73.7328 68.123 72.3652 71.549 69.9802C74.7264 67.7694 77.9703 65.1646 80.8929 62.6036C84.4319 59.5033 86.8703 54.939 90.8401 52.3447C91.516 51.9026 92.1333 51.6986 92.6499 51.6986C93.8958 51.6986 94.5507 52.8841 94.0017 54.7648C93.3556 56.9799 91.5064 58.8702 90.3209 60.8061C88.2047 64.2575 85.8416 67.2957 82.9304 70.0808C78.4913 74.3299 74.7071 78.0046 69.2551 80.8379C66.378 82.3325 62.6297 84.3375 59.1818 84.3375Z" fill="#E24331"/>
<path d="M94.2548 45.5994C94.2548 45.5994 94.3949 45.5845 94.6392 45.5574C94.8817 45.5399 95.2468 45.5311 95.6697 45.5828C96.097 45.6222 96.589 45.7264 97.1012 45.9006C97.3552 45.9969 97.6213 46.0889 97.8735 46.2325C98.1318 46.355 98.3726 46.5336 98.616 46.7035L98.9495 47.0056C99.0555 47.1098 99.1457 47.235 99.2411 47.3505C99.3453 47.4582 99.4101 47.5974 99.4793 47.7305C99.5502 47.8601 99.6193 47.9906 99.65 48.1342C99.685 48.2751 99.7393 48.4091 99.7524 48.5474C99.7577 48.6849 99.7629 48.8197 99.7664 48.9528C99.7743 49.2128 99.6885 49.4493 99.6535 49.6664C99.5729 49.8713 99.488 50.0543 99.4162 50.2136C99.3444 50.3721 99.2359 50.4885 99.1711 50.5918C99.0248 50.7915 98.9408 50.9044 98.9408 50.9044C98.9408 50.9044 98.9863 50.7713 99.0651 50.5384C99.101 50.422 99.1676 50.2898 99.2026 50.1278C99.2376 49.9685 99.2752 49.7872 99.3173 49.5911C99.3111 49.3923 99.3523 49.1813 99.3199 48.9651C99.3033 48.8591 99.2858 48.7497 99.2691 48.6376C99.2411 48.5299 99.1903 48.424 99.1553 48.3136C99.1255 48.2016 99.0581 48.1026 98.9924 48.0011C98.9268 47.9004 98.8734 47.7918 98.7849 47.7025C98.7009 47.6114 98.6273 47.509 98.5354 47.4223L98.243 47.1719C98.0337 47.0196 97.8288 46.8567 97.5942 46.7394C97.3709 46.6072 97.1389 46.4925 96.9086 46.3892C96.449 46.1904 95.9981 46.0302 95.6041 45.9173C95.4053 45.8647 95.2241 45.8052 95.0621 45.7728C94.8975 45.7378 94.7574 45.6914 94.6348 45.6756C94.3914 45.6266 94.2548 45.5994 94.2548 45.5994Z" fill="#ED5349"/>
<path d="M99.637 47.2963L99.4916 47.4338C98.6441 48.2235 99.8681 49.5369 100.716 48.748L100.863 48.6114C101.709 47.8216 100.485 46.5074 99.637 47.2963Z" fill="#ED6E66"/>
<path d="M97.1651 45.2852L97.075 45.4638C96.5479 46.4943 98.1484 47.3112 98.6746 46.2806L98.7639 46.102C99.2919 45.0715 97.6922 44.2537 97.1651 45.2852Z" fill="#ED6E66"/>
</svg>
